<?xml version="1.0" standalone="no"?>
<!DOCTYPE svg PUBLIC "-//W3C//DTD SVG 20010904//EN"
 "http://www.w3.org/TR/2001/REC-SVG-20010904/DTD/svg10.dtd">
<svg version="1.0" xmlns="http://www.w3.org/2000/svg"
 width="300.000000pt" height="300.000000pt" viewBox="0 0 300.000000 300.000000"
 preserveAspectRatio="xMidYMid meet">
<metadata>
Created by potrace 1.11, written by Peter Selinger 2001-2013
</metadata>
<g transform="translate(0.000000,300.000000) scale(0.100000,-0.100000)"
fill="#000000" stroke="none">
<path d="M1311 2990 c-645 -90 -1144 -555 -1283 -1193 -32 -148 -32 -447 0
-592 44 -200 116 -372 227 -540 234 -358 633 -601 1075 -656 116 -14 334 -6
449 16 538 105 985 500 1149 1015 54 170 67 256 67 460 0 204 -13 291 -67 460
-167 520 -606 908 -1148 1015 -99 20 -374 28 -469 15z m231 -1720 c5 0 8 106
8 235 l0 235 -48 0 -47 0 -135 135 -135 135 693 0 692 0 0 -135 0 -135 -375 0
-375 0 0 -50 0 -50 375 0 375 0 0 -140 0 -140 -375 0 -375 0 0 -367 0 -368
-183 183 -182 182 -328 0 -327 0 0 135 0 135 185 0 c102 0 185 3 185 8 0 4
-106 113 -235 242 l-235 235 0 -378 0 -377 -140 0 -140 0 0 698 0 697 557
-557 c307 -307 561 -558 565 -558z"/>
</g>
</svg>
