<?xml version="1.0" standalone="no"?>
<!DOCTYPE svg PUBLIC "-//W3C//DTD SVG 20010904//EN"
 "http://www.w3.org/TR/2001/REC-SVG-20010904/DTD/svg10.dtd">
<svg version="1.0" xmlns="http://www.w3.org/2000/svg"
 width="1000.000000pt" height="1000.000000pt" viewBox="0 0 1000.000000 1000.000000"
 preserveAspectRatio="xMidYMid meet">
<metadata>
Created by potrace 1.11, written by Peter Selinger 2001-2013
</metadata>
<g transform="translate(0.000000,1000.000000) scale(0.100000,-0.100000)"
fill="#000000" stroke="none">
<path d="M1499 7848 c0 -29 -1 -1059 -2 -2289 -2 -2125 -1 -2236 16 -2231 10
2 17 -1 17 -9 0 -11 2 -11 10 1 6 10 10 11 10 3 0 -7 5 -13 11 -13 5 0 8 4 5
8 -2 4 6 8 19 8 14 0 22 -2 20 -5 -3 -2 0 -9 5 -16 7 -8 5 -12 -5 -12 -8 0
-12 3 -10 7 2 4 -2 7 -10 7 -19 0 -19 -5 0 -23 8 -9 15 -11 15 -5 0 12 22 10
31 -3 4 -4 15 -3 25 3 15 8 16 11 4 12 -8 1 -18 1 -22 1 -3 -1 -9 5 -12 14 -3
8 -2 13 2 12 4 -2 19 -10 35 -18 21 -10 30 -11 39 -2 15 15 28 15 28 2 0 -5
-5 -9 -11 -7 -6 1 -13 -9 -15 -23 l-5 -25 17 23 c12 17 19 21 27 13 14 -14 27
-14 27 0 0 5 -4 8 -9 4 -5 -3 -12 -1 -15 4 -4 5 2 8 11 6 10 -2 22 -4 26 -4 5
-1 5 -5 2 -11 -3 -5 -1 -10 4 -10 15 0 14 27 -1 34 -7 2 -4 4 7 3 11 -2 26 -6
33 -10 6 -5 18 -5 25 0 19 12 40 13 53 2 8 -7 14 -6 19 1 8 13 25 13 25 -1 0
-5 -4 -7 -10 -4 -16 10 -11 -1 7 -16 11 -10 14 -10 9 -1 -4 6 -3 12 3 12 6 0
8 6 5 14 -7 18 12 30 22 15 5 -8 3 -9 -6 -4 -8 5 -11 3 -8 -6 6 -15 11 -15 41
-4 10 4 17 3 17 -5 0 -6 -6 -8 -12 -4 -7 4 -10 3 -5 -1 4 -5 16 -9 27 -10 16
-1 17 1 8 12 -8 10 -8 17 -1 24 8 8 13 7 18 -2 6 -8 4 -10 -5 -4 -8 5 -11 3
-8 -6 6 -15 11 -15 42 -3 15 6 18 4 13 -9 -3 -9 -1 -19 5 -23 7 -4 8 -3 4 4
-4 7 -3 12 3 12 6 0 8 6 5 14 -7 18 12 30 22 15 5 -8 3 -9 -6 -4 -8 5 -11 3
-8 -6 6 -15 11 -15 41 -4 10 4 17 3 17 -5 0 -6 -6 -8 -12 -4 -7 4 -10 3 -5 -1
4 -5 16 -9 27 -10 16 -1 17 1 8 12 -8 10 -8 17 -1 24 8 8 13 7 18 -2 6 -8 4
-10 -5 -4 -8 5 -11 3 -8 -6 3 -8 11 -14 19 -15 42 -3 43 -4 31 -16 -7 -7 -12
-17 -12 -22 0 -6 7 0 16 13 14 19 14 25 3 32 -10 7 -8 8 8 6 29 -4 54 -27 46
-41 -5 -8 -3 -8 8 0 8 6 24 10 37 8 12 -2 22 1 22 7 0 6 6 9 13 6 8 -3 14 1
14 8 0 15 -18 15 -29 0 -8 -11 -59 -15 -52 -4 2 4 13 6 24 4 18 -3 24 5 21 27
-1 8 20 5 38 -6 11 -7 13 -5 7 9 -4 11 -2 22 6 27 10 6 10 10 -2 19 -13 9 -12
10 2 5 12 -4 18 0 18 11 0 13 3 14 12 5 7 -7 17 -12 22 -12 6 0 3 5 -7 11 -15
9 -16 13 -5 26 12 15 11 15 -10 4 -13 -7 -26 -10 -30 -7 -3 3 1 6 8 6 9 0 7 5
-6 14 -10 8 -16 18 -11 22 4 4 7 2 7 -4 0 -7 4 -12 10 -12 14 0 8 22 -10 37
-13 11 -13 12 1 7 24 -8 32 11 17 38 -6 13 -12 33 -12 45 -1 12 -4 25 -8 29
-5 4 -8 12 -8 18 0 5 7 1 15 -10 15 -19 16 -19 13 1 -2 11 -10 26 -18 33 -13
10 -13 11 1 6 24 -8 32 11 17 38 -6 13 -12 33 -12 45 -1 12 -4 25 -8 29 -5 4
-8 12 -8 18 0 5 7 1 15 -10 15 -19 16 -19 13 1 -2 11 -10 26 -18 33 -13 10
-13 11 1 6 24 -8 32 11 17 38 -6 13 -12 33 -12 45 -1 12 -4 25 -8 29 -5 4 -8
12 -8 18 0 5 7 1 15 -10 15 -19 16 -19 13 1 -2 11 -10 26 -18 33 -13 10 -13
11 1 6 24 -8 32 11 17 38 -6 13 -12 33 -12 45 -1 12 -4 25 -8 29 -5 4 -8 12
-8 18 0 5 7 1 15 -10 15 -19 16 -19 13 1 -2 11 -10 26 -18 33 -13 10 -13 11 1
6 24 -8 32 11 17 38 -6 13 -12 33 -12 45 -1 12 -4 25 -8 29 -5 4 -8 12 -8 18
0 5 7 1 15 -10 15 -19 16 -19 13 1 -2 11 -10 26 -18 33 -13 10 -13 11 1 6 24
-8 32 11 17 38 -6 13 -12 33 -12 45 -1 12 -4 25 -8 29 -5 4 -8 12 -8 18 0 5 7
1 15 -10 15 -19 16 -19 13 1 -2 11 -10 26 -18 33 -13 10 -13 11 1 6 24 -8 32
11 17 38 -6 13 -12 33 -12 45 -1 12 -4 25 -8 29 -5 4 -8 12 -8 18 0 5 7 1 15
-10 15 -19 16 -19 13 1 -2 11 -10 26 -18 33 -13 10 -13 11 1 6 24 -8 32 11 17
38 -6 13 -12 33 -12 45 -1 12 -4 25 -8 29 -5 4 -8 12 -8 18 0 5 7 1 15 -10 15
-19 16 -19 13 1 -2 11 -10 26 -18 33 -13 10 -13 11 1 6 24 -8 32 11 17 38 -6
13 -12 32 -13 43 0 11 -4 27 -9 35 -9 13 -8 13 7 1 10 -8 17 -9 17 -3 0 6 -5
14 -10 17 -6 4 -8 11 -4 16 3 5 10 7 15 4 17 -11 9 11 -11 28 -11 9 -20 22
-20 29 0 6 6 3 14 -7 13 -18 14 -17 14 11 0 16 -5 35 -12 43 -7 10 -3 9 15 -2
25 -17 27 -16 40 0 12 16 12 17 -2 6 -12 -10 -18 -10 -27 -1 -7 7 -12 16 -12
21 0 5 -7 15 -15 23 -8 9 -15 20 -15 27 0 6 7 2 15 -9 10 -13 14 -15 15 -5 0
8 -8 24 -17 35 -17 20 -17 20 0 7 10 -8 17 -9 17 -3 0 6 -5 14 -10 17 -6 4 -8
11 -4 16 3 5 10 7 15 4 5 -4 9 -1 9 5 0 6 -7 13 -15 16 -8 4 -15 10 -15 16 0
5 5 6 10 3 6 -3 10 -1 10 4 0 6 -4 11 -9 11 -5 0 -12 7 -15 16 -3 8 -2 13 3
10 4 -3 16 3 26 14 20 22 7 28 -14 8 -9 -9 -12 -9 -7 -1 3 6 3 13 -1 16 -5 2
-2 2 5 1 6 -2 12 1 12 7 0 6 7 8 16 5 13 -5 14 -4 6 7 -7 8 -8 18 -4 22 4 5 1
5 -5 1 -8 -4 -13 -1 -13 9 0 10 -5 13 -12 9 -7 -4 -8 -3 -4 4 4 7 1 12 -6 12
-9 0 -9 3 2 10 8 5 11 10 6 10 -5 0 -3 6 3 14 10 11 8 17 -6 25 -10 6 -13 10
-8 11 19 0 38 -18 31 -29 -4 -6 -2 -11 3 -11 6 0 11 9 11 19 0 18 -25 36 -45
32 -5 -1 -4 3 3 11 11 11 14 10 22 -2 9 -13 10 -13 10 0 0 13 1 13 10 0 8 -11
9 -9 6 10 -3 14 -5 28 -5 33 -1 4 -5 7 -10 7 -6 0 -8 -9 -6 -20 3 -17 1 -19
-16 -10 -24 13 -25 22 -1 13 14 -6 15 -4 4 9 -15 18 -2 31 21 22 8 -3 18 0 22
5 3 6 12 8 18 5 7 -4 8 -3 4 1 -10 12 -38 15 -31 4 3 -5 1 -9 -4 -9 -17 0 -22
13 -9 28 10 13 9 14 -9 8 -15 -5 -24 -2 -28 10 -4 9 -4 19 -1 22 3 3 5 0 5 -7
0 -7 5 -9 11 -5 8 4 8 9 0 17 -6 6 -11 15 -11 21 0 5 6 1 14 -9 8 -11 12 -23
10 -27 -2 -3 4 -5 13 -4 9 2 19 9 21 16 3 9 -1 11 -12 7 -10 -4 -16 -1 -16 8
0 8 -8 19 -17 25 -17 11 -17 11 0 6 9 -3 17 -1 17 4 0 5 -8 11 -17 13 -16 4
-16 5 -1 6 9 0 26 -11 37 -25 12 -15 21 -22 21 -17 0 6 -10 21 -23 35 -18 19
-20 27 -11 36 9 8 14 7 18 -4 3 -8 9 -13 14 -10 4 2 47 -35 95 -83 48 -48 90
-85 93 -82 4 3 4 1 0 -6 -4 -7 -13 -10 -21 -6 -8 3 -15 0 -15 -5 0 -6 10 -9
22 -7 23 5 58 -24 58 -46 0 -7 3 -10 6 -6 9 9 74 -54 74 -71 0 -9 3 -13 6 -9
6 6 34 -16 34 -27 0 -3 -8 -3 -17 0 -14 5 -15 4 -4 -4 8 -6 19 -8 26 -6 6 3
21 -7 33 -21 12 -14 19 -25 14 -25 -4 0 4 -6 18 -13 17 -9 24 -21 23 -38 -1
-13 1 -18 3 -11 10 21 26 13 19 -10 -4 -16 -3 -19 3 -9 8 10 14 11 28 1 16
-10 16 -11 2 -6 -28 8 -21 0 18 -23 37 -22 42 -49 8 -43 -10 2 -17 2 -14 0 3
-2 13 -10 23 -18 16 -11 18 -11 15 1 -5 24 26 15 39 -11 7 -14 13 -22 13 -18
0 4 20 -11 45 -34 33 -31 44 -47 40 -62 -3 -12 -2 -15 1 -8 9 19 27 14 22 -6
-3 -11 0 -19 8 -19 7 0 10 5 7 11 -4 6 1 5 10 -3 22 -18 22 -32 0 -25 -14 5
-15 4 -4 -4 8 -6 19 -8 26 -6 6 3 18 -2 25 -11 11 -13 11 -18 1 -25 -8 -5 -9
-10 -3 -14 6 -3 12 0 15 6 5 15 116 -90 117 -110 0 -7 3 -11 8 -9 9 6 52 -39
45 -47 -4 -3 0 -6 9 -6 15 0 58 -44 58 -59 0 -5 -6 -11 -12 -14 -7 -3 -3 -4 9
-4 12 1 19 6 17 12 -3 5 3 1 13 -10 10 -11 32 -31 48 -44 17 -13 22 -21 12
-18 -14 5 -16 3 -8 -12 6 -10 8 -20 6 -23 -3 -3 2 -5 10 -5 11 0 12 4 4 14
-26 30 10 10 42 -24 20 -21 44 -44 55 -51 18 -12 18 -12 -2 -3 -15 7 -21 7
-21 -4 0 -7 6 -11 12 -9 15 6 65 -33 65 -51 0 -8 4 -17 10 -20 6 -3 8 2 5 12
-4 14 -3 14 5 -2 6 -11 26 -31 45 -45 29 -21 32 -27 19 -36 -13 -10 -13 -12 1
-18 9 -3 13 -2 10 4 -3 6 -1 10 4 10 6 0 11 -7 11 -16 0 -8 4 -13 9 -10 5 3
11 0 14 -7 3 -9 -8 -12 -43 -11 -26 0 -53 5 -60 9 -8 5 -11 4 -6 -3 6 -10 -30
-11 -69 -2 -5 1 -12 1 -15 0 -16 -6 -613 -4 -617 3 -3 4 -10 4 -16 0 -7 -5
-92 -8 -189 -8 l-178 1 -1 -36 c0 -19 -1 -93 -1 -165 0 -84 -4 -135 -11 -144
-9 -11 -9 -13 -1 -8 9 5 12 -65 12 -266 0 -149 1 -278 1 -284 1 -7 8 -13 17
-13 9 0 12 -5 8 -12 -5 -7 -3 -8 7 -2 20 12 40 14 33 3 -3 -5 2 -9 11 -9 9 0
14 -4 11 -8 -2 -4 0 -14 6 -22 8 -12 9 -12 4 3 -3 9 0 17 6 17 6 0 5 7 -3 18
-12 15 -12 16 2 5 9 -7 18 -11 21 -8 2 3 5 -2 5 -10 0 -8 -5 -11 -11 -8 -6 4
-5 -1 3 -10 8 -10 19 -16 25 -14 6 3 20 -3 31 -12 12 -9 15 -10 8 -1 -19 21
-16 35 4 19 11 -10 14 -10 9 -1 -4 6 -3 12 3 12 6 0 8 6 5 14 -7 18 12 30 22
15 5 -8 3 -9 -6 -4 -8 5 -11 3 -8 -6 6 -15 11 -15 41 -4 10 4 17 3 17 -5 0 -6
-6 -8 -12 -4 -7 4 -10 3 -5 -1 4 -5 16 -9 27 -10 16 -1 17 1 8 12 -8 10 -8 17
-1 24 8 8 13 7 18 -2 6 -8 4 -10 -5 -4 -8 5 -11 3 -8 -6 6 -15 11 -15 42 -3
15 6 18 4 13 -9 -3 -9 -1 -19 5 -23 7 -4 8 -3 4 4 -4 7 -3 12 3 12 6 0 8 6 5
14 -7 18 12 30 22 15 5 -8 3 -9 -6 -4 -8 5 -11 3 -8 -6 6 -15 11 -15 41 -4 10
4 17 3 17 -5 0 -6 -6 -8 -12 -4 -7 4 -10 3 -5 -1 4 -5 16 -9 27 -10 16 -1 17
1 8 12 -8 10 -8 17 -1 24 8 8 13 7 18 -2 6 -8 4 -10 -5 -4 -8 5 -11 3 -8 -5 2
-8 14 -14 27 -15 13 -1 26 -6 29 -11 4 -6 17 -11 29 -11 18 -1 20 1 10 12 -6
7 -14 9 -17 5 -3 -4 -11 -2 -18 6 -11 12 -10 14 5 11 10 -1 24 -6 31 -11 7 -4
18 -4 25 1 14 11 35 10 60 -1 10 -5 23 -3 33 5 10 8 18 9 22 2 4 -5 14 -9 23
-8 24 4 39 -8 30 -24 -6 -10 -11 -9 -24 3 -14 14 -16 14 -21 -1 -4 -9 -4 -18
-1 -21 3 -3 5 0 5 7 0 9 5 9 20 1 16 -8 21 -6 31 11 9 17 8 23 -2 30 -10 7 -9
8 6 6 11 -1 26 -6 33 -11 7 -4 18 -4 25 1 14 11 35 10 60 -1 11 -5 23 -4 30 3
14 14 27 14 27 0 0 -5 -4 -8 -9 -4 -11 6 -36 -33 -27 -43 3 -3 6 0 6 7 0 9 5
9 20 1 16 -9 22 -8 26 5 4 9 4 19 0 22 -3 4 -6 -1 -6 -10 0 -10 -5 -14 -15
-11 -8 4 -15 10 -15 16 0 5 4 7 9 3 5 -3 12 -1 15 4 4 5 14 8 24 6 9 -2 21 -4
25 -4 5 -1 5 -5 2 -11 -3 -5 -1 -10 4 -10 15 0 14 27 -1 34 -7 2 -4 4 7 3 11
-2 26 -6 33 -11 7 -4 18 -4 25 1 14 11 35 10 60 -1 11 -5 23 -4 30 3 14 14 27
14 27 0 0 -5 -4 -8 -9 -5 -5 3 -14 -1 -21 -9 -9 -10 -9 -15 -1 -15 6 0 11 4
11 10 0 15 24 7 33 -10 5 -10 6 -8 3 7 -3 17 0 21 15 18 27 -5 40 -15 34 -25
-3 -5 0 -12 6 -16 7 -4 9 -3 5 4 -3 6 -2 13 4 17 5 3 10 12 10 18 0 9 -2 9 -8
1 -5 -9 -11 -8 -20 2 -11 12 -10 14 5 11 10 -1 24 -6 31 -11 7 -4 18 -4 25 1
14 11 35 10 60 -1 11 -5 23 -4 30 3 14 14 27 14 27 1 0 -5 -5 -9 -11 -7 -6 1
-13 -9 -15 -23 l-5 -25 16 23 c9 12 26 22 39 22 12 0 28 6 34 12 9 9 15 10 20
2 4 -6 14 -10 23 -9 24 4 39 -8 30 -24 -6 -10 -11 -9 -24 3 -14 14 -16 14 -21
-1 -4 -9 -4 -18 -1 -21 3 -3 5 0 5 7 0 9 5 9 20 1 16 -8 21 -6 31 11 9 17 8
23 -2 30 -10 6 -7 8 8 6 12 -2 26 -6 29 -10 15 -15 26 -6 13 11 -12 15 -12 16
1 6 17 -11 59 -12 77 -1 6 4 14 3 18 -3 4 -6 11 -7 17 -4 6 4 8 3 5 -3 -3 -5
-27 -9 -52 -8 -25 1 -49 -3 -52 -7 -9 -16 6 -22 21 -9 11 10 17 8 25 -6 10
-17 10 -17 11 2 1 18 2 19 13 3 12 -15 14 -15 24 0 10 16 12 15 27 -3 15 -19
16 -17 1 20 -12 32 -12 36 -1 22 9 -12 16 -14 21 -8 3 6 12 11 18 11 7 0 4 -5
-5 -11 -10 -5 -18 -15 -18 -21 0 -6 11 -3 25 6 29 19 35 20 35 5 0 -5 -4 -8
-9 -5 -5 3 -14 -1 -21 -9 -9 -10 -9 -15 -1 -15 6 0 11 4 11 10 0 15 24 7 33
-10 5 -10 6 -8 3 7 -3 17 0 21 15 18 27 -5 40 -15 34 -25 -3 -5 0 -12 6 -16 7
-4 9 -3 5 4 -3 6 -2 13 4 17 5 3 10 12 10 18 0 9 -2 9 -8 1 -5 -9 -11 -8 -20
2 -11 12 -10 14 5 11 10 -1 24 -6 31 -11 7 -4 18 -4 25 1 14 11 35 10 60 -1
10 -5 23 -4 30 2 13 11 29 10 61 -3 11 -5 21 -3 26 4 5 9 9 8 14 -5 5 -13 9
-15 18 -6 9 9 17 7 35 -10 13 -12 23 -27 23 -34 0 -7 4 -16 10 -19 6 -3 7 1 4
12 -5 15 -4 15 7 -1 9 -15 9 -21 1 -24 -7 -2 -9 -8 -6 -14 4 -6 10 -5 15 3 8
11 13 9 28 -8 11 -13 24 -23 30 -23 6 0 11 -5 11 -11 0 -5 -4 -8 -9 -5 -5 3
-15 -2 -22 -11 -12 -14 -12 -16 1 -8 15 10 53 15 45 7 -3 -3 11 -18 30 -35 25
-21 34 -36 31 -52 -2 -12 0 -28 6 -36 8 -11 9 -10 4 4 -3 10 0 17 7 17 8 0 8
3 -2 9 -8 5 -9 11 -3 15 6 3 13 -3 17 -14 3 -11 11 -20 16 -20 6 0 7 -5 3 -12
-5 -8 -2 -9 10 -5 14 5 17 3 12 -8 -3 -8 -1 -15 5 -15 6 0 7 -6 3 -12 -5 -8
-1 -8 12 2 10 8 15 10 11 5 -4 -5 3 -15 15 -23 14 -8 16 -11 5 -8 -11 3 -15 2
-12 -4 3 -6 12 -10 19 -10 8 0 27 -16 43 -35 17 -19 32 -33 35 -30 8 8 3 -30
-7 -45 -8 -13 -6 -13 8 -1 9 7 14 17 11 22 -3 5 0 9 5 9 6 0 11 -4 11 -9 0 -4
31 -40 70 -78 38 -39 66 -74 62 -78 -4 -5 1 -5 12 -1 14 5 17 2 12 -9 -3 -8
-1 -15 5 -15 6 0 7 -6 3 -12 -5 -8 0 -7 11 2 10 8 16 10 12 4 -4 -7 0 -14 8
-18 21 -8 19 -27 -2 -19 -23 8 -15 -1 14 -16 20 -10 22 -9 17 6 -5 17 -5 17 6
0 20 -31 59 -65 67 -58 4 3 1 -3 -7 -13 -10 -13 -10 -17 -2 -12 6 4 12 3 12
-3 0 -6 7 -8 15 -5 11 5 13 2 8 -12 -4 -12 -3 -15 5 -10 7 4 12 3 12 -2 0 -5
10 -14 23 -21 12 -6 14 -9 4 -6 -10 3 -15 1 -12 -5 3 -6 12 -10 19 -10 8 0 27
-16 43 -35 17 -19 32 -33 35 -30 8 8 3 -30 -7 -45 -8 -13 -6 -13 8 -1 9 7 14
17 11 22 -3 5 0 9 5 9 6 0 11 -6 11 -12 0 -7 13 -22 29 -33 16 -10 27 -23 24
-28 -3 -5 -9 -3 -14 4 -6 10 -9 10 -9 2 0 -7 -7 -10 -17 -7 -14 5 -15 4 -4 -4
8 -6 24 -8 36 -6 14 2 31 -7 53 -30 18 -19 32 -39 32 -45 0 -5 4 -13 10 -16 6
-3 8 2 5 12 -3 10 -1 9 6 -4 7 -13 20 -25 30 -28 16 -5 17 -10 7 -28 -10 -19
-9 -20 4 -10 12 11 20 7 44 -20 16 -17 27 -36 26 -42 -2 -5 3 -4 10 4 10 11
10 14 1 18 -18 7 -16 30 3 37 12 4 15 2 11 -9 -4 -8 -1 -17 5 -21 6 -4 8 -3 5
3 -4 6 0 16 8 23 13 11 14 23 5 65 -1 6 -2 12 0 15 8 22 8 50 -1 50 -5 0 -8
-4 -4 -9 3 -5 1 -12 -4 -16 -5 -3 -8 -15 -6 -26 5 -24 -14 -69 -29 -69 -6 0
-5 5 2 12 15 15 16 31 0 22 -7 -4 -8 -3 -4 5 4 6 11 9 16 6 5 -3 8 4 7 15 -1
14 -6 19 -17 15 -10 -3 -9 -1 3 9 10 8 19 18 19 23 2 22 12 34 25 29 8 -3 12
-2 8 3 -3 5 1 11 7 14 7 2 1 4 -14 3 -14 0 -24 -3 -22 -5 6 -6 -17 -31 -29
-31 -6 0 -3 6 8 13 12 10 14 16 7 21 -18 11 -14 24 9 31 20 7 20 7 2 22 -17
14 -17 14 1 9 16 -6 17 -4 6 9 -7 8 -9 15 -4 15 5 0 2 5 -6 10 -8 5 -10 10 -4
10 16 0 13 33 -5 48 -13 11 -12 11 7 2 13 -7 26 -9 29 -7 10 11 10 43 -1 56
-9 12 -8 14 5 9 9 -4 16 -1 16 7 0 12 -7 11 -36 -1 -33 -13 -34 -12 -16 1 11
9 19 19 18 23 -1 4 1 9 4 12 4 3 3 -1 -2 -8 -6 -11 -3 -12 14 -3 11 7 21 14
21 17 0 3 -4 3 -8 0 -5 -3 -21 4 -38 15 -20 14 -23 19 -10 17 10 -2 21 3 23
10 3 8 -2 10 -14 6 -15 -5 -15 -4 -3 5 11 8 12 11 2 11 -7 0 -11 4 -7 9 3 5 1
12 -5 16 -5 3 -10 12 -10 18 0 8 3 8 9 -2 6 -10 10 -10 16 -1 4 6 -1 18 -11
26 -18 14 -17 14 4 4 14 -7 21 -17 18 -26 -3 -8 -1 -14 5 -14 7 0 9 10 4 27
-6 24 -5 25 12 12 16 -13 17 -12 5 3 -8 9 -11 22 -8 27 4 5 1 13 -4 16 -7 5
-5 12 7 21 17 13 17 14 -1 7 -14 -5 -17 -3 -11 7 5 9 4 11 -3 6 -17 -10 -15 0
4 30 15 22 15 24 0 18 -9 -3 -13 -11 -9 -18 4 -6 -2 -4 -13 4 -29 22 -30 24
-11 17 11 -4 20 -1 23 8 4 8 10 12 15 9 5 -3 9 0 9 5 0 6 -5 11 -11 11 -5 0
-7 5 -4 10 3 6 1 10 -5 10 -6 0 -10 -7 -8 -16 2 -10 -4 -19 -12 -21 -13 -4
-13 -3 0 6 10 7 11 11 2 11 -6 0 -11 6 -10 13 2 6 -2 11 -9 10 -7 -2 -10 4 -6
13 4 11 8 12 13 4 6 -9 9 -9 15 0 4 6 -1 18 -11 26 -18 14 -17 14 4 4 14 -7
21 -17 18 -26 -3 -8 -1 -14 5 -14 7 0 9 10 4 27 -5 23 -4 25 9 14 13 -11 13
-9 3 13 -13 27 -30 37 -21 11 4 -8 1 -15 -5 -15 -6 0 -10 3 -10 7 3 21 -3 24
-18 12 -10 -7 -8 -2 5 12 12 14 19 29 15 32 -10 10 -11 47 -1 41 4 -3 8 0 8 6
0 6 4 9 8 6 4 -2 14 0 22 5 11 7 7 8 -12 5 -16 -3 -28 0 -28 5 0 5 9 9 20 9
11 0 20 4 20 10 0 5 -6 7 -14 4 -8 -3 -17 0 -21 5 -3 6 -10 9 -15 6 -5 -3 -12
0 -16 6 -4 8 -3 9 4 5 12 -7 14 -2 14 46 1 16 5 25 11 21 5 -3 7 0 5 8 -3 8
-12 13 -19 11 -9 -2 -8 3 4 16 9 10 14 22 10 26 -4 3 -8 13 -9 22 -2 12 1 13
11 4 8 -6 12 -20 10 -31 -2 -10 0 -19 5 -19 19 0 4 56 -20 73 -20 15 -21 17
-6 15 10 -2 21 3 23 10 3 8 -2 10 -14 6 -15 -5 -15 -4 -3 5 11 8 12 11 2 11
-7 0 -11 4 -8 9 4 5 0 12 -6 14 -10 4 -10 6 0 6 7 1 10 6 6 13 -4 7 -3 8 4 4
19 -11 14 5 -5 20 -14 11 -15 13 -2 9 10 -4 16 0 16 10 0 8 -4 15 -9 15 -5 0
-6 5 -3 10 10 17 24 11 20 -8 -4 -21 30 -48 40 -32 4 6 1 9 -7 8 -7 -2 -13 4
-13 12 0 8 -5 21 -9 29 -7 11 -5 13 6 9 8 -4 15 0 15 7 0 12 -7 11 -36 -1 -33
-13 -34 -12 -16 1 11 9 19 19 18 23 -1 4 1 9 4 12 4 3 3 -1 -2 -8 -6 -11 -3
-12 14 -3 11 7 21 14 21 17 0 3 -4 3 -8 0 -5 -3 -21 4 -38 15 -20 14 -23 19
-10 17 10 -2 21 3 23 10 3 8 -2 10 -14 6 -17 -5 -17 -5 1 6 14 10 20 9 27 -1
6 -10 8 -7 6 9 -2 13 -9 27 -16 31 -7 5 -13 16 -15 25 -1 10 -9 22 -17 28 -12
8 -12 9 1 5 9 -3 26 4 39 14 26 21 21 25 -12 8 -12 -7 -19 -8 -15 -4 4 4 0 14
-10 22 -14 10 -14 12 -1 8 10 -4 16 0 16 10 0 8 -5 15 -11 15 -6 0 -5 5 2 12
19 19 14 32 -5 17 -16 -13 -17 -12 -4 4 7 9 10 17 5 17 -5 1 6 9 24 18 l33 18
-26 22 c-14 13 -23 27 -20 32 3 5 -4 14 -16 20 l-21 12 21 22 c12 12 18 26 14
29 -10 10 -11 47 -1 41 4 -3 8 0 8 6 0 6 4 9 8 6 4 -2 14 0 22 5 11 7 7 8 -12
5 -16 -3 -28 0 -28 5 0 5 9 9 20 9 11 0 20 4 20 10 0 5 -6 7 -14 4 -8 -3 -17
0 -21 5 -3 6 -10 9 -15 6 -5 -3 -12 0 -16 6 -4 8 -3 9 4 5 12 -7 14 -2 14 46
1 16 5 25 11 21 5 -3 7 0 5 8 -3 8 -12 13 -19 11 -9 -2 -7 3 4 16 12 13 15 22
8 27 -8 4 -8 12 -2 23 7 12 5 22 -6 35 -13 14 -14 20 -4 30 10 9 11 8 6 -5 -6
-15 -4 -16 19 -5 17 8 21 13 11 15 -21 5 -19 20 5 34 11 7 20 17 20 22 0 5 -9
1 -20 -9 -26 -24 -26 -11 1 27 21 30 21 30 1 17 -11 -7 -18 -17 -15 -22 3 -5
-4 -3 -15 4 -12 7 -20 14 -19 14 1 0 11 7 21 15 16 12 18 12 11 1 -5 -10 -4
-12 4 -7 6 4 8 12 5 18 -5 8 -1 9 10 5 14 -6 15 -3 6 13 -7 14 -8 26 0 39 13
25 13 34 0 26 -6 -3 -7 1 -3 10 4 12 8 13 13 5 6 -9 9 -9 15 0 4 6 13 9 20 6
8 -3 15 -1 17 5 2 5 8 1 15 -10 13 -21 1 -24 -25 -7 -18 11 -31 -4 -38 -40 -5
-27 -4 -28 9 -9 8 10 13 25 10 32 -3 7 0 13 6 13 6 0 11 -5 11 -11 0 -6 7 -9
15 -6 8 4 17 2 21 -4 4 -7 10 -6 19 1 10 8 15 7 19 -2 6 -12 -2 21 -11 52 -3
8 5 0 16 -18 16 -25 19 -37 11 -47 -8 -10 -8 -15 1 -21 7 -4 10 -3 6 2 -14 24
39 52 55 29 5 -6 8 -6 8 2 0 12 17 12 35 1 6 -4 17 -3 25 3 16 9 9 12 -32 12
-14 0 -15 3 -7 18 11 21 21 26 13 6 -2 -7 3 -13 13 -14 27 -2 46 -8 70 -21 20
-11 23 -10 29 15 6 22 8 24 14 9 3 -9 10 -17 14 -16 5 1 13 -4 18 -12 7 -10 8
-9 4 5 -3 9 -1 17 5 17 6 0 7 5 3 12 -4 6 -3 8 4 4 6 -3 9 -19 6 -34 -3 -23
-2 -24 7 -9 11 19 34 13 23 -6 -4 -7 -3 -8 2 -4 5 5 9 14 9 20 0 7 11 11 24 9
15 -2 21 0 16 7 -3 6 -12 8 -18 4 -7 -3 -3 3 7 16 25 28 44 12 28 -23 -8 -19
-8 -27 0 -32 7 -4 8 -3 4 4 -7 11 6 17 27 13 5 -1 6 3 2 9 -3 6 -11 8 -16 5
-5 -4 -6 2 -2 11 4 11 8 13 11 6 2 -7 8 -12 13 -12 6 0 8 4 5 8 -2 4 4 9 15 9
21 2 26 -12 7 -23 -7 -5 -8 -2 -3 7 5 8 4 10 0 6 -5 -4 -10 -14 -11 -22 -2
-12 2 -12 17 -5 18 10 23 6 20 -13 -1 -5 4 -5 10 -2 8 5 8 10 0 18 -6 6 -11
17 -11 24 0 6 12 0 26 -14 14 -14 29 -22 33 -17 9 14 30 11 40 -4 7 -11 9 -11
14 2 9 22 28 20 21 -1 -5 -17 -5 -17 6 0 12 19 35 13 24 -6 -4 -7 -3 -8 2 -4
5 5 9 14 9 20 0 7 11 11 24 9 15 -2 21 0 16 7 -3 6 -12 8 -18 4 -7 -3 -3 3 7
16 25 28 44 12 28 -23 -8 -19 -8 -27 0 -32 7 -4 8 -3 4 4 -7 11 6 17 27 13 5
-1 6 3 2 9 -3 6 -11 8 -16 5 -5 -3 -6 1 -3 9 5 13 8 12 24 -2 11 -8 16 -20 13
-26 -4 -6 0 -5 9 2 11 9 18 9 21 2 3 -6 4 -5 3 2 -2 7 -8 13 -14 13 -6 0 -16
5 -23 12 -9 9 -7 11 11 6 15 -4 21 -2 16 5 -3 6 -2 13 3 17 6 3 8 -3 6 -15 -3
-13 1 -20 12 -20 9 0 13 6 9 15 -8 22 2 18 15 -6 7 -13 7 -19 1 -15 -6 3 -13
2 -16 -3 -4 -5 2 -8 11 -6 10 1 17 7 16 13 -1 5 6 8 16 5 13 -3 21 1 24 14 4
15 5 15 6 1 1 -12 8 -15 26 -12 14 2 25 0 25 -6 0 -6 -5 -8 -12 -4 -7 4 -8 3
-4 -4 4 -7 2 -12 -5 -12 -7 0 -9 -3 -6 -6 4 -4 13 -2 21 5 11 9 15 9 20 -1 6
-12 -2 21 -11 52 -3 8 5 0 16 -18 16 -25 19 -37 11 -47 -8 -10 -8 -15 1 -21 7
-4 10 -3 6 2 -14 24 39 52 55 29 5 -6 8 -6 8 2 0 12 17 12 37 0 8 -5 11 -1 8
11 -3 15 1 18 22 14 16 -3 24 -1 20 5 -4 6 0 16 9 24 13 10 16 9 21 -9 3 -12
10 -22 15 -22 5 0 6 5 2 12 -5 8 -3 8 7 2 8 -5 30 -10 49 -11 46 -3 60 -6 87
-21 20 -11 23 -10 29 15 6 22 8 24 14 9 3 -9 10 -17 14 -16 5 1 13 -4 18 -12
7 -10 8 -9 4 5 -3 9 -1 17 5 17 6 0 7 5 3 12 -4 6 -3 8 4 4 6 -3 9 -19 6 -34
-3 -23 -2 -24 7 -9 11 19 34 13 23 -6 -4 -7 -3 -8 2 -4 5 5 9 14 9 20 0 7 11
11 24 9 15 -2 21 0 16 7 -3 6 -12 8 -18 4 -7 -3 -3 3 7 16 25 28 44 12 28 -23
-8 -19 -8 -27 0 -32 7 -4 8 -3 4 4 -7 11 6 17 27 13 5 -1 5 4 1 10 -5 9 -2 10
10 6 11 -5 26 2 43 19 14 14 23 19 20 10 -3 -8 -2 -18 3 -21 6 -4 10 2 11 12
0 14 2 14 9 -5 5 -12 8 -28 6 -35 -1 -6 -1 -8 2 -4 2 4 11 2 20 -5 13 -11 12
-8 -2 14 -11 17 -14 28 -6 33 6 3 7 11 4 17 -4 7 -2 8 5 4 9 -6 9 -11 0 -22
-9 -11 -7 -14 15 -14 16 0 25 4 21 10 -3 6 -1 10 4 10 15 0 14 -13 -1 -29 -10
-11 -10 -13 0 -7 6 4 12 2 12 -5 0 -9 3 -9 14 0 10 8 16 9 19 1 3 -6 4 -5 3 2
-2 7 -12 12 -22 10 -17 -2 -17 -1 -3 10 9 7 16 17 17 21 0 5 3 11 6 14 3 3 4
-4 1 -16 -3 -14 1 -21 12 -21 9 0 13 6 9 15 -8 22 2 18 15 -6 7 -13 7 -19 1
-15 -6 3 -13 2 -16 -3 -4 -5 2 -8 11 -6 10 1 17 7 16 13 -1 5 6 8 16 5 13 -3
21 1 24 14 4 15 5 15 6 1 1 -12 8 -15 26 -12 14 2 25 0 25 -6 0 -6 -5 -8 -12
-4 -7 4 -8 3 -4 -4 4 -7 2 -12 -5 -12 -7 0 -9 -3 -6 -6 4 -4 13 -2 21 5 11 9
15 9 20 -1 6 -12 -2 21 -11 52 -3 8 5 0 16 -18 16 -25 19 -37 11 -47 -8 -10
-8 -15 1 -21 7 -4 10 -3 6 2 -14 24 39 52 55 29 5 -6 8 -6 8 2 0 12 17 12 35
1 6 -4 17 -3 25 3 16 9 9 12 -32 12 -14 0 -15 3 -7 18 11 21 21 26 13 6 -2 -7
3 -13 13 -14 28 -2 52 -8 59 -16 11 -11 26 -8 19 3 -4 6 8 10 30 10 20 0 34
-4 31 -8 -3 -5 1 -9 8 -9 9 0 12 11 10 31 -3 22 -1 27 5 16 6 -8 7 -18 4 -24
-3 -5 -1 -6 6 -2 6 4 14 0 17 -8 3 -9 11 -16 16 -16 7 0 6 5 -1 14 -9 11 -6
17 14 30 14 9 23 21 20 26 -3 5 3 13 12 19 11 6 13 11 5 11 -7 0 -11 4 -7 9 3
5 1 13 -5 16 -7 4 -7 11 -2 18 12 16 12 50 -1 58 -5 4 -5 14 1 26 9 15 8 20
-4 20 -8 0 -13 -6 -10 -12 2 -6 -2 -12 -9 -12 -10 0 -11 5 -4 19 5 10 16 18
24 18 8 0 15 5 15 11 0 5 -4 7 -10 4 -5 -3 -10 1 -10 9 0 8 4 17 9 20 11 7 11
56 1 56 -16 0 -18 28 -4 55 15 29 13 42 -5 30 -6 -3 -9 -11 -6 -16 4 -5 1 -9
-4 -9 -14 0 -14 13 -1 26 5 5 10 24 12 42 1 17 6 32 10 32 4 0 8 5 8 11 0 8
-5 8 -15 -1 -8 -7 -12 -16 -9 -21 3 -5 0 -9 -6 -9 -7 0 -9 6 -6 13 3 6 9 20
12 30 4 10 13 16 21 13 10 -4 11 -1 4 13 -6 10 -7 21 -4 25 3 3 -2 6 -12 6
-15 0 -16 -2 -4 -17 12 -14 12 -16 0 -8 -10 5 -12 4 -7 -3 4 -7 2 -12 -4 -12
-7 0 -10 7 -6 15 3 8 0 15 -7 16 -7 0 3 7 21 15 38 16 40 21 11 20 -12 -1 -23
5 -25 12 -1 7 0 8 3 2 8 -17 23 -11 16 8 -6 15 -5 16 13 2 18 -14 18 -14 5 2
-7 10 -17 16 -20 13 -4 -2 -8 2 -8 10 0 8 3 14 6 13 27 -3 31 4 10 20 -12 11
-24 30 -26 43 -2 17 0 20 6 10 7 -11 13 -11 32 3 13 9 19 16 13 16 -5 0 -15
-5 -22 -12 -12 -12 -13 -10 -16 32 -1 8 -6 15 -13 15 -6 0 -15 4 -20 9 -4 5
-3 6 4 2 6 -3 14 -2 18 4 3 6 -1 13 -10 16 -12 5 -13 9 -5 14 8 5 9 13 4 21
-12 20 -14 39 -3 39 8 0 13 -15 10 -32 0 -5 3 -8 8 -8 5 0 7 -14 6 -31 -3 -29
-2 -30 14 -15 10 11 12 19 6 24 -15 11 -17 33 -4 49 7 8 8 13 3 12 -18 -5 -54
13 -54 27 0 8 5 14 12 14 24 0 -3 14 -30 15 -15 1 -34 5 -41 10 -8 5 -12 4 -8
-1 7 -12 -933 -11 -952 0 -9 6 -12 5 -8 0 7 -13 -212 -12 -232 0 -9 6 -12 5
-8 0 7 -13 -212 -12 -232 0 -9 6 -12 5 -8 0 7 -13 -212 -12 -232 0 -9 6 -12 5
-8 0 7 -13 -212 -12 -232 0 -8 5 -12 5 -8 0 3 -5 -65 -9 -163 -9 -92 0 -166 3
-164 7 2 4 0 10 -6 13 -6 4 -9 1 -8 -6 3 -11 -10 -14 -56 -10 -7 1 -16 10 -19
22 -3 13 -1 19 6 16 7 -3 11 -10 9 -16 -1 -7 2 -10 7 -7 5 4 12 0 14 -6 4 -9
6 -9 6 -1 1 6 -6 18 -14 26 -8 8 -11 18 -7 22 4 5 0 6 -9 3 -9 -4 -22 -2 -30
3 -12 8 -12 10 1 8 26 -3 44 1 37 8 -10 9 14 34 26 26 6 -3 7 -1 3 6 -4 6 -13
8 -19 4 -19 -12 -46 -13 -52 -3 -3 5 0 7 8 4 8 -3 14 2 14 11 0 8 -4 15 -9 15
-5 0 -6 5 -3 10 11 17 24 11 20 -10 -2 -11 0 -20 5 -20 13 0 20 29 9 36 -7 4
-7 10 0 18 8 9 7 13 -4 13 -8 0 -11 -5 -8 -10 3 -6 1 -7 -5 -3 -6 4 -9 13 -6
21 4 8 10 12 15 9 12 -7 39 14 39 30 0 6 -5 4 -10 -4 -9 -13 -10 -13 -10 0 0
13 -1 13 -10 0 -5 -8 -13 -11 -17 -6 -4 5 -2 11 4 13 10 3 10 10 2 26 -10 21
-10 21 8 -1 15 -18 21 -20 32 -10 8 7 11 8 8 2 -4 -7 2 -14 13 -17 17 -4 18
-2 9 15 -6 11 -8 22 -5 26 3 3 6 -1 6 -9 0 -12 2 -11 11 1 9 12 10 12 5 -3 -4
-12 -2 -17 6 -14 7 2 12 13 11 23 -1 10 0 13 3 6 3 -6 10 -10 15 -6 5 3 9 -1
9 -8 0 -9 3 -9 10 2 6 10 10 11 10 3 0 -7 4 -13 10 -13 5 0 7 8 4 18 -3 9 2 5
12 -10 13 -19 26 -26 46 -26 15 1 28 5 28 9 0 4 -12 6 -27 3 -20 -3 -24 -2
-14 5 11 7 10 10 -5 14 -16 4 -16 5 -2 6 9 0 20 -4 23 -10 5 -7 14 -4 27 8 14
12 19 14 16 3 -2 -7 6 -16 17 -18 17 -4 18 -2 5 14 -9 13 -10 15 -1 7 7 -6 20
-9 27 -6 8 3 14 0 14 -7 0 -6 5 -8 11 -4 7 4 7 -1 -1 -16 l-12 -22 25 18 c20
15 23 22 14 34 -9 12 -8 13 2 3 7 -6 20 -9 27 -6 17 6 19 -13 2 -23 -7 -4 -8
-3 -4 4 11 18 0 14 -15 -5 -12 -14 -12 -16 0 -8 11 6 13 4 8 -11 -7 -18 -6
-18 7 -1 9 12 16 15 21 7 4 -7 11 -8 18 -2 7 5 22 8 35 6 12 -2 22 0 22 5 0 4
-18 7 -39 6 -32 -1 -38 1 -33 14 4 10 7 11 10 3 3 -10 7 -10 17 -2 9 8 15 8
20 0 3 -6 11 -8 16 -5 5 4 12 -1 15 -9 7 -18 34 -22 34 -5 0 5 -4 7 -10 4 -6
-3 -10 -2 -10 2 0 5 10 14 23 22 20 13 21 13 9 -1 -10 -13 -10 -17 4 -22 23
-9 31 -7 15 3 -9 6 -10 11 -2 15 6 4 11 2 11 -3 0 -6 3 -10 8 -10 21 4 32 -3
33 -18 0 -14 2 -13 9 4 6 15 15 21 25 17 8 -4 21 -2 28 3 17 12 67 16 67 6 0
-5 -13 -8 -30 -7 -16 1 -27 -2 -24 -7 3 -5 2 -15 -3 -21 -10 -17 -14 -42 -5
-33 4 4 7 10 8 13 2 20 17 41 25 36 5 -3 7 -9 5 -13 -3 -4 5 -8 16 -8 20 -2
20 -1 2 12 -18 13 -18 14 5 10 12 -2 29 -9 36 -15 9 -8 15 -8 20 0 6 10 5 11
-14 14 -6 0 -15 6 -20 12 -8 7 -4 10 13 10 14 0 23 -3 20 -7 -2 -4 3 -9 11
-13 9 -3 12 -12 8 -22 -4 -11 2 -9 19 7 13 13 23 26 22 29 -2 3 6 7 17 7 10 1
19 -3 19 -9 0 -6 -3 -8 -7 -5 -9 10 -34 -13 -27 -25 3 -5 18 1 32 14 14 13 22
17 17 9 -6 -11 -4 -13 9 -8 10 4 20 7 23 7 3 0 -1 8 -8 18 -11 14 -11 15 0 5
7 -6 20 -9 27 -6 8 3 14 0 14 -7 0 -6 5 -8 11 -4 7 4 7 -1 -1 -16 l-12 -22 25
18 c20 15 23 22 14 34 -9 12 -8 13 2 3 7 -6 20 -9 27 -6 17 6 19 -13 2 -23 -7
-5 -8 -3 -3 7 8 12 6 12 -8 0 -19 -15 -23 -26 -5 -15 8 5 9 1 5 -12 -7 -18 -6
-18 7 -1 9 12 16 15 21 7 4 -7 11 -8 18 -2 7 5 22 8 35 6 12 -2 22 0 22 5 0 4
-18 7 -39 6 -32 -1 -38 1 -33 14 4 10 7 11 10 3 3 -10 7 -10 17 -2 9 8 15 8
20 0 3 -6 11 -8 16 -5 5 4 12 -1 15 -9 7 -18 34 -22 34 -5 0 5 -4 7 -10 4 -5
-3 -10 -2 -10 2 0 5 10 14 23 22 20 13 21 13 9 -1 -10 -13 -10 -17 4 -22 23
-9 31 -7 15 3 -9 6 -10 11 -2 15 6 4 11 3 11 -2 0 -5 7 -9 15 -9 10 0 14 6 10
16 -3 8 -2 12 2 7 4 -4 8 -18 8 -29 0 -15 6 -22 20 -22 11 0 27 -4 35 -9 12
-8 13 -7 3 6 -7 8 -11 17 -8 19 2 3 -4 5 -15 5 -10 0 -16 -4 -14 -8 3 -4 0 -8
-5 -8 -13 0 -14 10 -1 30 6 10 10 11 10 3 0 -7 4 -13 10 -13 5 0 7 8 4 18 -3
9 2 5 12 -10 13 -19 26 -26 46 -26 15 1 28 5 28 9 0 4 -12 6 -27 3 -20 -3 -24
-2 -14 5 11 7 10 10 -5 14 -16 4 -16 5 -2 6 9 0 20 -4 23 -10 5 -7 14 -4 27 8
11 9 18 13 16 8 -2 -8 6 -17 15 -14 19 6 36 6 32 -1 -3 -4 2 -10 10 -14 9 -3
12 -12 8 -22 -4 -11 2 -9 19 7 13 13 23 26 22 29 -2 3 6 7 17 7 10 1 19 -3 19
-9 0 -6 -3 -8 -7 -5 -9 10 -34 -13 -27 -25 3 -5 18 1 32 14 14 13 22 17 18 11
-4 -8 -2 -13 6 -14 7 0 23 -2 36 -5 12 -2 22 0 22 5 0 6 -9 8 -20 6 -21 -4
-36 10 -21 19 5 4 12 2 16 -4 4 -6 11 -8 16 -5 5 4 12 -1 15 -9 7 -18 34 -22
34 -5 0 5 -4 7 -10 4 -6 -3 -10 -2 -10 2 0 5 10 14 23 22 20 13 21 13 9 -1
-10 -13 -10 -17 4 -22 23 -9 31 -7 15 3 -9 6 -10 11 -2 15 6 4 11 3 11 -2 0
-12 32 -11 49 2 11 8 13 8 8 -1 -5 -8 0 -11 13 -10 14 1 19 6 15 17 -3 10 -1
9 9 -3 8 -10 18 -19 23 -20 4 -1 7 -10 6 -19 -2 -10 2 -18 7 -18 6 0 9 3 9 8
-4 21 2 42 12 42 5 0 7 -4 4 -10 -3 -6 1 -7 9 -4 9 3 13 11 9 17 -4 6 -1 7 7
2 19 -12 111 -15 130 -5 11 6 21 5 28 -2 8 -8 16 -7 28 3 10 8 15 9 11 2 -5
-8 0 -11 13 -10 14 1 19 6 15 17 -3 10 -1 9 9 -3 8 -10 18 -19 23 -20 4 -1 7
-10 6 -19 -2 -10 2 -18 7 -18 6 0 9 3 9 8 -4 21 2 42 12 42 5 0 7 -4 4 -10 -3
-6 1 -7 9 -4 9 3 13 11 9 17 -3 5 -1 7 5 3 5 -3 12 0 15 6 2 7 4 0 4 -16 0
-16 -3 -23 -7 -16 -5 9 -9 9 -14 1 -4 -6 -2 -11 4 -11 6 0 8 -5 5 -11 -4 -6 2
-5 14 3 11 7 20 17 19 23 -2 18 14 45 24 39 5 -3 1 -12 -9 -19 -17 -13 -17
-14 5 -12 12 1 22 6 22 12 0 6 3 7 8 0 9 -13 32 -18 32 -7 0 15 38 11 44 -5 4
-9 4 -18 1 -21 -3 -3 -5 0 -5 7 0 7 -5 9 -12 5 -7 -4 -8 -3 -4 4 5 8 1 10 -10
5 -15 -5 -15 -7 0 -15 32 -18 52 -17 52 2 0 10 -5 16 -11 13 -5 -3 -5 0 2 7
12 13 37 5 29 -9 -3 -4 1 -8 9 -8 8 0 13 2 10 5 -2 2 2 11 10 18 8 8 11 22 8
31 -4 10 -2 14 4 10 7 -4 10 0 8 10 -1 10 3 24 9 32 8 11 8 13 0 8 -14 -8 -37
17 -41 46 -2 16 -1 18 6 8 7 -11 13 -11 32 3 13 9 19 16 13 16 -5 0 -15 -5
-22 -12 -12 -12 -13 -11 -16 31 -1 8 -7 16 -15 19 -9 3 -11 0 -6 -8 5 -9 4
-11 -4 -6 -14 9 -4 29 12 23 17 -5 32 14 34 46 1 28 -12 39 -15 12 -1 -8 -3
-22 -4 -30 -2 -23 -17 -18 -15 5 1 11 5 20 10 20 4 0 6 4 2 10 -3 5 3 18 14
29 18 18 18 20 3 26 -15 6 -15 8 3 15 17 7 17 9 2 9 -22 1 -18 22 8 38 24 14
12 17 -14 3 -13 -7 -17 -20 -16 -50 1 -22 -3 -43 -8 -47 -6 -3 -7 -1 -3 5 3 6
2 13 -3 16 -8 5 -8 34 -1 44 2 1 4 7 5 12 1 6 4 12 5 15 8 17 2 49 -9 53 -9 3
-11 0 -6 -8 6 -9 4 -11 -4 -5 -9 5 -10 10 -2 18 7 7 14 7 24 -1 11 -9 13 -8
12 8 -1 11 -5 23 -10 27 -4 5 -5 2 -1 -4 4 -7 2 -13 -3 -13 -14 0 -14 17 -1
25 7 5 8 11 1 19 -11 13 -10 34 2 54 5 6 5 18 0 25 -4 6 -9 21 -10 32 -2 15
-1 17 6 6 7 -11 13 -11 32 3 13 9 19 16 13 16 -5 0 -15 -5 -22 -12 -12 -12
-13 -11 -16 31 -1 8 -7 16 -15 19 -9 3 -11 0 -6 -8 5 -9 4 -11 -4 -6 -15 10
-3 29 15 22 8 -3 14 -1 14 5 0 6 4 8 9 5 8 -5 8 22 1 32 -2 1 -3 6 -4 11 -3
26 -13 18 -11 -9 1 -16 -2 -30 -7 -30 -6 0 -7 7 -4 16 5 12 2 15 -11 10 -15
-5 -15 -4 1 9 11 8 17 15 13 15 -4 0 -3 9 3 19 7 13 7 22 0 26 -5 3 -10 1 -10
-4 0 -6 -5 -11 -10 -11 -6 0 -5 8 2 20 11 17 10 22 -2 30 -11 7 -11 10 -2 10
8 0 10 5 5 13 -4 6 -9 23 -11 36 -2 18 1 22 12 18 9 -4 18 -1 22 6 4 7 4 9 -1
5 -4 -4 -17 -2 -28 4 -24 13 -4553 16 -4565 3 -4 -4 -1 -10 6 -12 6 -3 12 -12
12 -21 0 -8 3 -13 6 -9 9 9 33 -18 37 -42 2 -11 6 -23 10 -27 3 -4 4 3 2 15
-2 12 0 19 6 16 5 -4 9 -17 9 -30 0 -13 4 -26 9 -29 5 -4 6 4 3 16 -4 17 3 13
29 -17 19 -22 37 -42 42 -43 4 -2 5 -8 1 -13 -3 -5 0 -9 6 -9 6 0 8 -5 4 -12
-5 -8 0 -7 11 2 17 14 18 13 12 -4 -6 -14 -4 -17 10 -12 10 4 14 4 10 0 -4 -4
1 -13 11 -20 15 -12 15 -15 2 -24 -8 -5 -10 -10 -4 -10 5 0 15 5 21 11 7 7 12
6 17 -6 3 -9 2 -14 -2 -11 -4 2 -8 -5 -9 -17 0 -12 1 -16 4 -9 3 6 10 12 16
12 16 0 177 -165 177 -181 0 -7 3 -9 6 -6 9 8 94 -75 87 -85 -2 -5 1 -8 7 -8
6 0 37 -25 68 -56 31 -31 52 -54 47 -51 -6 3 -12 -3 -12 -14 -2 -17 0 -18 13
-4 17 17 28 20 19 5 -3 -5 5 -15 19 -22 19 -8 23 -15 16 -23 -7 -9 -6 -16 5
-25 8 -7 13 -15 11 -19 -3 -4 0 -13 6 -21 8 -12 9 -12 4 3 -3 10 0 17 7 17 8
0 8 3 -2 9 -8 5 -9 11 -3 15 6 3 13 -3 17 -14 3 -11 11 -20 16 -20 6 0 8 -4 5
-9 -3 -5 5 -12 19 -15 14 -4 24 -10 24 -14 -3 -20 2 -33 11 -27 17 10 11 -7
-8 -22 -15 -13 -15 -13 5 -4 33 16 48 14 33 -4 -7 -9 -10 -18 -6 -22 3 -3 6
-1 6 5 0 7 7 12 15 12 8 0 15 -5 15 -11 0 -6 9 -9 19 -6 14 3 18 1 14 -10 -4
-9 -14 -13 -26 -9 -15 4 -17 2 -8 -7 9 -9 16 -9 31 1 28 17 35 15 19 -5 -11
-15 -11 -16 1 -5 16 14 34 16 25 3 -3 -5 0 -13 6 -17 8 -4 9 -3 5 4 -4 7 0 12
10 12 10 0 14 3 10 8 -4 4 -13 7 -19 7 -5 0 -11 6 -13 13 -1 7 0 8 3 2 3 -7
10 -7 21 2 12 10 14 10 8 0 -4 -7 -1 -14 8 -18 8 -3 12 -13 9 -22 -4 -14 -3
-15 5 -2 7 9 7 18 1 26 -6 8 -4 11 8 11 37 0 44 3 37 16 -6 9 -5 9 8 0 8 -7
18 -10 22 -6 4 4 4 -1 0 -11 -5 -13 -4 -17 3 -13 6 4 19 -1 29 -10 17 -18 48
-28 39 -13 -3 5 -1 11 5 15 6 4 7 11 4 17 -4 7 -2 8 5 4 9 -6 9 -11 0 -22 -6
-8 -7 -14 -2 -14 7 0 10 -165 11 -455 0 -346 -2 -454 -11 -448 -9 5 -9 3 0 -8
8 -10 11 -90 10 -271 0 -221 -2 -254 -14 -242 -20 20 -28 17 -12 -3 7 -10 -8
2 -33 27 -25 25 -44 48 -41 53 2 4 -1 7 -8 7 -6 0 -56 45 -111 100 -55 55
-104 100 -109 100 -5 0 -9 8 -8 18 0 10 3 12 6 5 2 -7 9 -13 15 -13 6 0 4 8
-5 18 -10 10 -15 21 -12 24 3 2 -2 5 -10 5 -11 0 -12 -4 -4 -14 27 -31 -8 -9
-49 33 -37 36 -43 47 -31 55 9 5 9 9 2 9 -6 0 -15 -5 -18 -10 -4 -6 -16 1 -28
17 -12 15 -26 31 -32 35 -6 5 -6 8 0 8 6 1 0 5 -13 11 -13 5 -20 13 -17 19 3
5 -4 11 -17 11 -17 1 -18 3 -5 6 9 2 17 8 17 13 0 4 -8 6 -19 3 -10 -3 -22 1
-26 8 -5 7 -4 10 3 5 6 -3 13 -3 16 2 2 4 -4 9 -15 9 -10 1 -27 9 -36 18 -14
14 -14 18 -2 26 10 7 7 8 -10 7 -17 -2 -28 4 -36 19 -7 13 -14 21 -16 19 -2
-2 -13 6 -24 17 -11 11 -14 16 -6 12 10 -6 12 -4 7 4 -5 7 -15 10 -24 6 -9 -3
-13 -3 -9 1 4 4 -1 13 -11 21 -9 8 -12 12 -6 9 6 -3 11 1 11 9 0 10 -5 11 -19
4 -10 -5 -18 -6 -18 -2 0 5 -11 21 -25 36 -14 15 -22 27 -18 28 4 0 -2 4 -15
10 -13 5 -20 14 -17 20 4 6 1 9 -6 7 -8 -1 -16 2 -18 7 -2 6 -11 16 -20 23 -9
8 -11 11 -4 8 6 -4 14 -3 17 2 2 4 -4 9 -15 9 -10 1 -27 9 -36 18 -14 14 -14
18 -2 27 11 8 10 9 -3 4 -10 -3 -25 -3 -33 0 -13 5 -13 9 -3 22 10 12 10 14 1
8 -7 -4 -13 -2 -13 3 0 6 -6 10 -12 8 -7 -1 -12 4 -10 11 1 7 -3 12 -10 10 -7
-2 -13 0 -13 4 0 4 -9 14 -20 23 -11 9 -15 14 -8 11 6 -4 14 -3 17 2 2 4 -4 9
-15 9 -19 2 -58 32 -42 34 4 0 -2 4 -15 10 -14 5 -20 13 -16 20 4 7 3 9 -4 5
-6 -3 -17 2 -24 12 -7 10 -22 24 -33 31 -18 11 -18 12 -1 7 14 -5 16 -3 8 6
-6 7 -10 17 -10 21 0 5 -3 12 -7 15 -4 4 -5 2 -3 -3 2 -6 -1 -10 -7 -10 -5 0
-10 8 -9 18 0 12 -3 14 -10 7 -11 -11 -156 126 -156 148 0 7 -4 11 -8 8 -5 -3
-34 22 -66 54 -31 33 -61 60 -65 60 -11 0 -23 29 -16 40 3 5 0 12 -6 16 -8 4
-9 3 -5 -4 12 -20 -4 -13 -28 12 -13 12 -26 32 -28 42 -2 11 -11 18 -21 16 -9
-1 -22 6 -29 18 -7 11 -18 20 -24 20 -14 0 -27 28 -19 40 3 5 0 12 -6 16 -8 4
-9 3 -5 -4 12 -21 -4 -13 -32 14 -17 17 -21 24 -10 21 10 -3 19 -3 22 1 2 4
-7 9 -21 10 -14 1 -33 10 -42 20 -9 10 -29 27 -44 39 -15 12 -28 24 -28 27 2
20 0 27 -7 22 -11 -7 -93 79 -96 101 -2 10 -9 18 -17 19 -33 2 -39 5 -39 14 0
5 -27 35 -60 66 -32 32 -57 61 -54 66 5 8 -11 12 -30 9 -5 -1 -6 5 -2 14 3 9
2 14 -3 11 -13 -8 -43 30 -39 49 2 10 -4 20 -12 22 -11 3 -11 2 -3 -4 8 -6 9
-14 3 -23 -6 -10 -10 -11 -10 -3 0 7 -16 27 -35 44 -19 18 -32 36 -29 40 3 5
0 9 -6 9 -6 0 -8 5 -4 13 5 7 0 6 -11 -3 -17 -14 -18 -13 -12 3 4 10 3 16 -2
13 -13 -8 -51 43 -55 76 -1 3 -4 9 -8 13 -3 4 -5 0 -4 -9 1 -8 5 -19 9 -22 4
-4 7 -12 7 -17 0 -5 -9 2 -21 17 -11 15 -19 32 -16 40 3 7 -1 13 -9 13 -7 0
-10 -5 -7 -10 3 -6 1 -7 -6 -3 -6 4 -9 19 -7 32 4 21 3 24 -10 14 -17 -15 -19
-24 -2 -14 7 5 8 3 4 -5 -5 -7 -11 -10 -14 -6 -10 10 -11 35 -1 35 5 0 9 4 9
8 0 5 -7 9 -15 9 -8 0 -12 -4 -9 -8 2 -4 0 -10 -6 -14 -5 -3 -10 0 -10 7 0 7
-15 24 -33 37 -17 13 -24 21 -15 18 12 -4 15 -2 11 9 -3 8 -11 13 -17 11 -7
-3 -21 2 -31 10 -13 11 -15 14 -4 10 9 -3 16 0 16 8 0 7 -7 11 -14 8 -15 -6
-55 25 -48 36 2 4 -1 13 -7 21 -8 12 -9 12 -4 -2 3 -10 1 -18 -4 -18 -6 0 -10
9 -10 21 0 11 -4 17 -10 14 -5 -3 -15 3 -22 15 -7 11 -18 20 -25 20 -12 0 -17
13 -14 33 0 4 -5 7 -13 7 -8 0 -25 13 -39 29 -14 17 -28 27 -32 23 -5 -4 -4 0
1 8 16 28 13 38 -10 34 -18 -3 -37 11 -84 60 -34 35 -64 61 -68 57 -4 -3 -3 1
2 9 16 27 12 37 -15 36 -20 -1 -26 4 -26 19 0 13 -8 21 -22 23 -13 2 -23 8
-23 13 0 6 -6 7 -12 3 -7 -4 -10 -4 -6 1 4 4 0 14 -10 21 -15 12 -15 15 -2 24
12 9 11 10 -7 5 -17 -5 -22 -1 -25 17 -2 15 -10 23 -23 23 -11 0 -29 11 -40
25 -11 14 -30 33 -43 44 -13 10 -21 25 -18 32 7 17 -10 19 -18 2 -4 -7 -4 -3
-2 10 4 20 2 22 -12 10 -9 -7 -14 -9 -10 -4 4 4 -6 19 -23 33 -16 14 -29 31
-29 39 0 9 -4 12 -10 9 -5 -3 -10 -1 -10 4 0 6 5 11 10 11 6 0 10 4 10 8 0 5
-7 9 -15 9 -8 0 -12 -4 -9 -8 2 -4 0 -10 -6 -14 -5 -3 -10 1 -10 9 0 9 -5 16
-11 16 -7 0 -9 9 -6 23 6 22 6 22 -10 2 -15 -20 -15 -20 -10 2 5 22 -14 49
-26 37 -10 -10 -50 34 -44 50 4 9 -4 21 -19 30 -13 9 -24 12 -24 7 0 -5 9 -12
19 -16 11 -3 18 -12 15 -19 -4 -10 -12 -7 -30 10 -13 14 -23 30 -21 36 1 5 -6
12 -16 13 -10 2 -34 20 -53 40 l-34 36 -1 -53z m226 -147 c3 -5 1 -12 -5 -16
-5 -3 -10 1 -10 9 0 18 6 21 15 7z m292 -313 c-3 -8 -6 -5 -6 6 -1 11 2 17 5
13 3 -3 4 -12 1 -19z m113 -92 c0 -3 -4 -8 -10 -11 -5 -3 -10 -1 -10 4 0 6 5
11 10 11 6 0 10 -2 10 -4z m45 -46 c3 -5 -1 -10 -10 -10 -9 0 -13 5 -10 10 3
6 8 10 10 10 2 0 7 -4 10 -10z m160 -160 c3 -5 -1 -10 -10 -10 -9 0 -13 5 -10
10 3 6 8 10 10 10 2 0 7 -4 10 -10z m6195 -844 c0 -3 -4 -8 -10 -11 -5 -3 -10
-1 -10 4 0 6 5 11 10 11 6 0 10 -2 10 -4z m-3830 -336 c0 -5 -2 -10 -4 -10 -3
0 -8 5 -11 10 -3 6 -1 10 4 10 6 0 11 -4 11 -10z m-1163 -42 c-3 -8 -6 -5 -6
6 -1 11 2 17 5 13 3 -3 4 -12 1 -19z m5019 -51 c-3 -21 -17 -38 -27 -31 -6 4
-6 11 2 20 9 11 8 14 -7 15 -18 0 -18 1 1 8 23 10 34 6 31 -12z m-13 -50 c4 3
7 4 7 1 0 -3 -6 -11 -14 -17 -11 -9 -15 -7 -19 9 -4 16 -2 19 7 11 7 -6 16 -8
19 -4z m-479 -5 c3 -5 -1 -9 -9 -9 -8 0 -12 4 -9 9 3 4 7 8 9 8 2 0 6 -4 9 -8z
m-1304 -6 c0 -2 -7 -7 -16 -10 -8 -3 -12 -2 -9 4 6 10 25 14 25 6z m193 -2
c-7 -3 -9 -13 -6 -22 4 -14 3 -14 -5 -2 -12 16 -7 30 11 29 9 0 9 -2 0 -5z
m640 0 c-7 -3 -9 -13 -6 -22 4 -14 3 -14 -5 -2 -12 16 -7 30 11 29 9 0 9 -2 0
-5z m517 0 c0 -8 -19 -13 -24 -6 -3 5 1 9 9 9 8 0 15 -2 15 -3z m-2980 -12 c0
-4 -4 -12 -8 -19 -6 -9 -11 -8 -19 5 -9 15 -7 18 8 19 11 1 19 -1 19 -5z
m-2680 -46 c0 -2 -8 -10 -17 -17 -16 -13 -17 -12 -4 4 13 16 21 21 21 13z
m3665 -136 c-3 -5 -12 -10 -18 -10 -7 0 -6 4 3 10 19 12 23 12 15 0z m-3675
-255 c7 -9 8 -15 2 -15 -5 0 -12 7 -16 15 -3 8 -4 15 -2 15 2 0 9 -7 16 -15z
m6120 -121 c0 -2 -9 0 -20 6 -11 6 -20 13 -20 16 0 2 9 0 20 -6 11 -6 20 -13
20 -16z m-38 -36 c-8 -8 -9 -4 -5 13 4 13 8 18 11 10 2 -7 -1 -18 -6 -23z m-1
-131 c-10 -9 -11 -8 -5 6 3 10 9 15 12 12 3 -3 0 -11 -7 -18z m1 -79 c-6 -6
-7 0 -4 19 5 21 7 23 10 9 2 -10 0 -22 -6 -28z m11 -53 c-3 -9 -8 -14 -10 -11
-3 3 -2 9 2 15 9 16 15 13 8 -4z m15 -56 c-6 -4 -5 -9 3 -12 11 -4 12 -7 2
-18 -11 -10 -15 -11 -25 0 -11 10 -9 11 6 5 15 -6 17 -4 10 7 -4 8 -10 22 -11
32 -3 15 -1 16 11 5 9 -8 10 -15 4 -19z m-18 -69 c-6 -11 -13 -20 -16 -20 -2
0 0 9 6 20 6 11 13 20 16 20 2 0 0 -9 -6 -20z m18 -89 c-6 -2 -5 -7 3 -11 10
-7 10 -12 0 -23 -7 -9 -8 -18 -2 -21 8 -5 8 -34 1 -43 -2 -2 -3 -7 -4 -12 -3
-21 -16 -23 -16 -3 0 12 5 22 11 22 5 0 7 5 4 10 -4 6 -10 8 -15 5 -12 -7 -6
20 8 37 6 8 9 18 5 22 -4 3 -8 16 -10 27 -2 16 -1 18 11 7 8 -8 10 -15 4 -17z
m-2203 -130 c-3 -5 -1 -12 5 -16 18 -11 1 -22 -32 -21 -23 1 -33 7 -34 19 -2
15 -1 15 3 1 4 -14 7 -14 14 -3 6 10 9 10 9 2 0 -7 5 -13 12 -13 6 0 8 3 5 7
-4 3 -2 12 4 20 13 15 23 18 14 4z m265 -11 c-6 -4 -11 -11 -11 -15 1 -5 -4
-10 -12 -11 -7 -1 -13 6 -13 16 0 11 5 16 15 12 9 -3 12 -1 7 6 -5 8 -2 10 9
5 12 -4 13 -8 5 -13z m252 -14 c5 -7 8 -6 8 3 0 11 3 11 17 0 15 -12 16 -12
10 3 -4 13 -2 15 10 11 11 -4 14 -2 9 5 -5 8 -2 10 9 5 12 -4 13 -8 5 -13 -6
-4 -12 -11 -13 -16 -1 -5 -11 -9 -22 -9 -11 0 -25 -3 -32 -8 -6 -4 -14 -3 -18
2 -3 5 -15 8 -26 6 -28 -6 -49 4 -49 24 1 14 2 14 11 -1 5 -10 15 -18 21 -18
6 0 5 7 -3 18 -13 16 -13 16 7 -1 11 -9 24 -14 27 -11 4 4 -1 13 -11 21 -15
12 -14 13 8 2 14 -7 28 -17 32 -23z m323 24 c3 -5 1 -10 -4 -10 -6 0 -11 5
-11 10 0 6 2 10 4 10 3 0 8 -4 11 -10z m122 3 c-4 -3 -2 -12 4 -20 10 -11 14
-11 23 3 10 14 12 13 12 -3 0 -16 -8 -19 -51 -18 -40 0 -50 3 -51 18 -2 15 -1
15 3 1 4 -14 7 -14 14 -3 6 10 9 10 9 2 0 -7 5 -13 12 -13 6 0 8 3 5 7 -7 6
10 33 21 33 3 0 2 -3 -1 -7z m423 -13 c-6 -4 -11 -11 -11 -15 1 -5 -4 -10 -12
-11 -7 -1 -13 6 -13 16 0 11 5 16 15 12 9 -3 12 -1 7 6 -5 8 -2 10 9 5 12 -4
13 -8 5 -13z m415 10 c3 -5 1 -10 -4 -10 -6 0 -11 5 -11 10 0 6 2 10 4 10 3 0
8 -4 11 -10z m120 1 c-3 -5 -1 -12 5 -16 18 -11 1 -22 -32 -21 -23 1 -33 7
-34 19 -2 15 -1 15 3 1 4 -14 7 -14 14 -3 6 10 9 10 9 2 0 -7 5 -13 12 -13 6
0 8 3 5 7 -4 3 -2 12 4 20 13 15 23 18 14 4z m246 -14 c-10 -9 -11 -8 -5 6 3
10 9 15 12 12 3 -3 0 -11 -7 -18z m-2267 -27 c-5 -5 -10 3 -11 18 -1 22 0 24
9 8 6 -10 6 -22 2 -26z m232 23 c-3 11 -2 16 4 12 17 -10 12 -38 -6 -31 -9 3
-18 6 -20 6 -2 0 -4 8 -4 17 0 15 2 14 16 -3 14 -17 15 -17 10 -1z m659 7 c3
-6 -1 -7 -9 -4 -18 7 -21 14 -7 14 6 0 13 -4 16 -10z m461 -7 c-3 11 -2 16 4
12 17 -10 12 -38 -6 -31 -9 3 -18 6 -20 6 -2 0 -4 8 -4 17 0 15 2 14 16 -3 14
-17 15 -17 10 -1z m499 7 c3 -6 -1 -7 -9 -4 -18 7 -21 14 -7 14 6 0 13 -4 16
-10z m289 -5 c3 -8 1 -15 -4 -15 -6 0 -10 7 -10 15 0 8 2 15 4 15 2 0 6 -7 10
-15z m-1852 -17 c-7 -7 -12 -8 -12 -2 0 14 12 26 19 19 2 -3 -1 -11 -7 -17z
m1120 0 c-7 -7 -12 -8 -12 -2 0 14 12 26 19 19 2 -3 -1 -11 -7 -17z m149 -1
c-10 -9 -11 -8 -5 6 3 10 9 15 12 12 3 -3 0 -11 -7 -18z m-1673 -32 c-3 -3 -9
2 -12 12 -6 14 -5 15 5 6 7 -7 10 -15 7 -18z m-13 -15 c18 -20 18 -21 0 -14
-13 5 -16 4 -11 -4 4 -7 3 -12 -2 -12 -6 0 -9 11 -8 25 0 14 1 25 2 25 0 0 9
-9 19 -20z m-20 -98 c-3 -3 -11 0 -18 7 -9 10 -8 11 6 5 10 -3 15 -9 12 -12z
m10 -21 c3 -5 2 -12 -3 -15 -5 -3 -9 1 -9 9 0 17 3 19 12 6z m25 -503 c0 -5
-4 -8 -10 -8 -5 0 -10 5 -10 11 0 5 -4 8 -8 5 -5 -3 -9 1 -9 8 0 11 4 12 19 3
10 -7 18 -15 18 -19z m-30 -12 c0 -2 -7 -7 -16 -10 -8 -3 -12 -2 -9 4 6 10 25
14 25 6z m17 -228 c-19 -12 -26 -9 -24 11 1 15 4 17 19 8 13 -8 14 -13 5 -19z
m-24 -83 c-3 -9 -8 -14 -10 -11 -3 3 -2 9 2 15 9 16 15 13 8 -4z m-4393 -201
c0 -2 -7 -4 -15 -4 -8 0 -15 4 -15 10 0 5 7 7 15 4 8 -4 15 -8 15 -10z m230
12 c0 -3 -4 -8 -10 -11 -5 -3 -10 -1 -10 4 0 6 5 11 10 11 6 0 10 -2 10 -4z
m397 -18 c2 -17 0 -19 -7 -8 -5 8 -6 18 -4 22 8 12 10 10 11 -14z m1053 6 c0
-2 -7 -4 -15 -4 -8 0 -15 4 -15 10 0 5 7 7 15 4 8 -4 15 -8 15 -10z m240 0 c0
-2 -7 -4 -15 -4 -8 0 -15 4 -15 10 0 5 7 7 15 4 8 -4 15 -8 15 -10z m240 0 c0
-2 -7 -4 -15 -4 -8 0 -15 4 -15 10 0 5 7 7 15 4 8 -4 15 -8 15 -10z m244 4
c-3 -4 -12 -8 -20 -8 -8 0 -14 4 -14 8 0 4 9 8 19 8 11 0 17 -4 15 -8z m640 0
c-3 -4 -12 -8 -20 -8 -8 0 -14 4 -14 8 0 4 9 8 19 8 11 0 17 -4 15 -8z m76 -2
c-7 -7 -13 -7 -20 0 -6 6 -3 10 10 10 13 0 16 -4 10 -10z m-3053 -2 c-3 -3
-12 -4 -19 -1 -8 3 -5 6 6 6 11 1 17 -2 13 -5z m600 0 c-3 -3 -12 -4 -19 -1
-8 3 -5 6 6 6 11 1 17 -2 13 -5z m1080 0 c-3 -3 -12 -4 -19 -1 -8 3 -5 6 6 6
11 1 17 -2 13 -5z m240 0 c-3 -3 -12 -4 -19 -1 -8 3 -5 6 6 6 11 1 17 -2 13
-5z m240 0 c-3 -3 -12 -4 -19 -1 -8 3 -5 6 6 6 11 1 17 -2 13 -5z m246 -1 c-7
-2 -19 -2 -25 0 -7 3 -2 5 12 5 14 0 19 -2 13 -5z m74 1 c-3 -3 -12 -4 -19 -1
-8 3 -5 6 6 6 11 1 17 -2 13 -5z m320 0 c-3 -3 -12 -4 -19 -1 -8 3 -5 6 6 6
11 1 17 -2 13 -5z m-1657 -13 c0 -4 -6 -8 -12 -8 -7 0 -20 -3 -28 -5 -8 -3
-12 -3 -7 -1 4 3 5 8 3 11 -2 4 7 8 20 8 13 1 24 -1 24 -5z m3205 -541 c-3 -5
-1 -11 4 -15 12 -7 3 -35 -11 -35 -5 0 -6 5 -3 10 3 6 0 10 -7 10 -9 0 -9 3 2
10 9 6 10 10 3 10 -6 0 -11 9 -10 19 1 15 4 17 14 9 7 -5 11 -14 8 -18z m-22
-205 c-3 -9 -8 -14 -10 -11 -3 3 -2 9 2 15 9 16 15 13 8 -4z m33 -68 c1 -10
-4 -17 -13 -17 -13 0 -13 3 -3 15 11 13 10 14 -5 9 -13 -5 -16 -4 -11 5 10 16
29 9 32 -12z m-6 -327 c0 -5 -4 -10 -10 -10 -5 0 -10 5 -10 10 0 6 5 10 10 10
6 0 10 -4 10 -10z"/>
<path d="M1696 7738 c3 -5 10 -6 15 -3 13 9 11 12 -6 12 -8 0 -12 -4 -9 -9z"/>
<path d="M1839 7593 c-13 -16 -12 -17 4 -4 9 7 17 15 17 17 0 8 -8 3 -21 -13z"/>
<path d="M1916 7499 c3 -5 9 -7 14 -4 4 3 11 0 13 -5 3 -6 4 -5 3 1 -1 7 -10
13 -19 15 -9 1 -15 -2 -11 -7z"/>
<path d="M1986 7442 c-3 -5 1 -9 9 -9 8 0 15 4 15 9 0 4 -4 8 -9 8 -6 0 -12
-4 -15 -8z"/>
<path d="M2096 7338 c3 -5 10 -6 15 -3 13 9 11 12 -6 12 -8 0 -12 -4 -9 -9z"/>
<path d="M2145 7280 c-3 -6 1 -7 9 -4 18 7 21 14 7 14 -6 0 -13 -4 -16 -10z"/>
<path d="M2245 7181 c-3 -5 -2 -12 3 -15 5 -3 9 1 9 9 0 17 -3 19 -12 6z"/>
<path d="M2315 7161 c-3 -5 -2 -12 3 -15 5 -3 9 1 9 9 0 17 -3 19 -12 6z"/>
<path d="M2285 7130 c15 -17 35 -19 35 -4 0 3 -5 2 -10 -1 -6 -3 -13 1 -16 9
-3 9 -11 16 -17 16 -5 0 -2 -9 8 -20z"/>
<path d="M2389 7043 c-13 -16 -12 -17 4 -4 9 7 17 15 17 17 0 8 -8 3 -21 -13z"/>
<path d="M2430 6995 c0 -8 4 -15 8 -15 5 0 9 7 9 15 0 8 -4 15 -9 15 -4 0 -8
-7 -8 -15z"/>
<path d="M2530 6891 c0 -6 4 -12 8 -15 5 -3 9 1 9 9 0 8 -4 15 -9 15 -4 0 -8
-4 -8 -9z"/>
<path d="M8525 6623 c2 -10 4 -18 5 -18 1 0 4 -11 6 -25 3 -13 9 -29 14 -34 4
-4 6 -15 3 -22 -3 -8 -1 -14 4 -14 5 0 9 9 10 20 1 11 -3 20 -9 20 -6 0 -8 9
-5 20 3 11 -1 27 -9 35 -8 8 -14 17 -14 20 1 4 -1 9 -3 12 -3 3 -4 -3 -2 -14z"/>
<path d="M2796 6618 c3 -4 9 -8 15 -8 5 0 9 4 9 8 0 5 -7 9 -15 9 -8 0 -12 -4
-9 -9z"/>
<path d="M8567 6576 c-4 -10 -1 -13 8 -9 8 3 12 9 9 14 -7 12 -11 11 -17 -5z"/>
<path d="M2874 6555 c1 -8 8 -20 14 -25 8 -7 9 -7 3 1 -5 6 -7 18 -4 25 3 8 1
14 -5 14 -6 0 -9 -7 -8 -15z"/>
<path d="M8571 6493 c-1 -17 16 -25 25 -12 4 7 3 9 -4 5 -5 -3 -13 0 -15 6 -4
9 -6 10 -6 1z"/>
<path d="M4090 6480 c0 -5 5 -10 11 -10 5 0 7 5 4 10 -3 6 -8 10 -11 10 -2 0
-4 -4 -4 -10z"/>
<path d="M2956 6458 c3 -4 9 -8 15 -8 5 0 9 4 9 8 0 5 -7 9 -15 9 -8 0 -12 -4
-9 -9z"/>
<path d="M4155 6420 c3 -5 8 -10 11 -10 2 0 4 5 4 10 0 6 -5 10 -11 10 -5 0
-7 -4 -4 -10z"/>
<path d="M8553 6408 c0 -13 1 -17 4 -10 3 6 9 10 14 7 5 -4 6 1 3 9 -9 23 -20
19 -21 -6z"/>
<path d="M3034 6395 c1 -8 8 -20 14 -25 8 -7 9 -7 3 1 -5 6 -7 18 -4 25 3 8 1
14 -5 14 -6 0 -9 -7 -8 -15z"/>
<path d="M3088 6343 c6 -2 9 -10 6 -15 -4 -7 -2 -8 5 -4 13 9 5 26 -12 25 -9
0 -8 -2 1 -6z"/>
<path d="M8550 6340 c8 -5 20 -10 25 -10 6 0 3 5 -5 10 -8 5 -19 10 -25 10 -5
0 -3 -5 5 -10z"/>
<path d="M8553 6308 c-6 -7 -8 -22 -6 -33 2 -11 5 -26 5 -32 2 -17 13 -16 28
2 11 13 10 14 -4 9 -9 -3 -16 -1 -16 5 0 6 6 11 13 11 8 0 9 3 1 8 -6 4 -10
15 -8 25 3 20 0 21 -13 5z"/>
<path d="M4293 6284 c0 -16 13 -19 21 -5 3 5 0 11 -7 14 -8 3 -14 -1 -14 -9z"/>
<path d="M3140 6278 c0 -4 7 -8 15 -8 8 0 15 4 15 8 0 5 -7 9 -15 9 -8 0 -15
-4 -15 -9z"/>
<path d="M3204 6219 c-4 -7 -3 -9 4 -5 5 3 13 0 15 -6 4 -9 6 -10 6 -1 1 17
-16 25 -25 12z"/>
<path d="M8570 6201 c0 -11 4 -22 9 -25 4 -3 6 6 3 19 -5 30 -12 33 -12 6z"/>
<path d="M3250 6168 c11 -14 52 -19 44 -6 -4 5 -12 7 -19 4 -7 -2 -18 0 -24 5
-8 6 -8 5 -1 -3z"/>
<path d="M8550 6159 c0 -5 5 -7 10 -4 6 3 10 8 10 11 0 2 -4 4 -10 4 -5 0 -10
-5 -10 -11z"/>
<path d="M4437 6153 c-11 -11 -8 -20 7 -20 8 0 12 6 9 14 -6 15 -7 15 -16 6z"/>
<path d="M3319 6138 c-5 -18 -6 -38 -1 -34 7 8 12 36 6 36 -2 0 -4 -1 -5 -2z"/>
<path d="M4538 6053 c10 -4 10 -8 0 -21 -12 -15 -11 -16 4 -3 19 14 15 32 -5
30 -8 0 -8 -2 1 -6z"/>
<path d="M8585 6000 c-3 -6 1 -7 9 -4 18 7 21 14 7 14 -6 0 -13 -4 -16 -10z"/>
<path d="M3470 5955 c0 -8 4 -15 10 -15 5 0 7 7 4 15 -4 8 -8 15 -10 15 -2 0
-4 -7 -4 -15z"/>
<path d="M8553 5928 c0 -13 1 -17 4 -10 3 6 9 10 14 7 5 -4 6 1 3 9 -9 23 -20
19 -21 -6z"/>
<path d="M8579 5883 c-1 -5 -1 -12 0 -16 1 -5 -9 -6 -21 -2 -21 5 -21 5 -5 -5
10 -7 21 -9 25 -6 7 8 12 36 6 36 -2 0 -5 -3 -5 -7z"/>
<path d="M3575 5871 c-3 -5 -2 -12 3 -15 5 -3 9 1 9 9 0 17 -3 19 -12 6z"/>
<path d="M4736 5822 c-3 -5 1 -9 9 -9 8 0 12 4 9 9 -3 4 -7 8 -9 8 -2 0 -6 -4
-9 -8z"/>
<path d="M3630 5795 c0 -8 4 -15 10 -15 5 0 7 7 4 15 -4 8 -8 15 -10 15 -2 0
-4 -7 -4 -15z"/>
<path d="M3685 5740 c-3 -6 1 -7 9 -4 18 7 21 14 7 14 -6 0 -13 -4 -16 -10z"/>
<path d="M5030 5740 c-8 -5 -17 -7 -21 -4 -4 2 -5 -5 -2 -16 3 -11 9 -20 14
-20 5 0 6 6 3 13 -3 8 2 14 11 14 9 0 14 -6 11 -14 -4 -11 -1 -11 14 -3 11 6
20 13 20 16 0 3 -4 3 -9 -1 -6 -3 -13 1 -18 9 -6 10 -13 12 -23 6z"/>
<path d="M6376 5725 c4 -8 11 -15 16 -15 6 0 5 6 -2 15 -7 8 -14 15 -16 15 -2
0 -1 -7 2 -15z"/>
<path d="M6421 5726 c-7 -8 -8 -17 -3 -20 6 -3 15 1 21 8 7 8 8 17 3 20 -6 3
-15 -1 -21 -8z"/>
<path d="M7061 5726 c-7 -8 -8 -17 -3 -20 6 -3 15 1 21 8 7 8 8 17 3 20 -6 3
-15 -1 -21 -8z"/>
<path d="M7496 5727 c3 -10 13 -16 20 -13 7 3 16 1 19 -5 4 -5 11 -7 16 -3 6
4 6 11 -2 20 -8 10 -15 11 -24 4 -8 -6 -16 -5 -24 3 -10 9 -11 8 -5 -6z"/>
<path d="M8111 5726 c-20 -11 -21 -14 -7 -19 10 -4 15 -3 12 2 -3 5 1 12 10
15 12 4 15 2 10 -9 -3 -8 -1 -15 4 -15 12 0 13 27 2 34 -4 2 -18 -1 -31 -8z"/>
<path d="M6230 5721 c0 -12 29 -23 41 -15 6 3 18 0 27 -8 15 -11 15 -11 5 3
-7 9 -11 18 -8 20 2 3 -4 5 -15 5 -10 0 -16 -4 -14 -8 3 -4 0 -8 -5 -8 -6 0
-11 5 -11 10 0 6 -4 10 -10 10 -5 0 -10 -4 -10 -9z"/>
<path d="M6696 5714 c-4 -9 -4 -19 -1 -22 2 -3 7 3 11 12 4 9 4 19 1 22 -2 3
-7 -3 -11 -12z"/>
<path d="M6770 5715 c-14 -8 -20 -14 -14 -15 5 0 19 7 30 15 24 18 16 19 -16
0z"/>
<path d="M7336 5714 c-4 -9 -4 -19 -1 -22 2 -3 7 3 11 12 4 9 4 19 1 22 -2 3
-7 -3 -11 -12z"/>
<path d="M7816 5714 c-4 -9 -4 -19 -1 -22 2 -3 7 3 11 12 4 9 4 19 1 22 -2 3
-7 -3 -11 -12z"/>
<path d="M7845 5720 c-2 -3 7 -7 21 -8 13 -1 24 2 24 6 0 9 -40 11 -45 2z"/>
<path d="M7905 5722 c3 -3 0 -11 -5 -17 -7 -9 -5 -16 7 -26 15 -11 16 -11 6 1
-10 11 -10 17 2 30 13 15 13 17 0 17 -8 0 -13 -3 -10 -5z"/>
<path d="M7985 5720 c-3 -5 -2 -10 4 -10 5 0 13 5 16 10 3 6 2 10 -4 10 -5 0
-13 -4 -16 -10z"/>
<path d="M8032 5711 c7 -9 13 -18 15 -20 1 -2 1 5 0 16 0 11 -7 20 -14 20 -10
0 -10 -4 -1 -16z"/>
<path d="M8065 5720 c-3 -5 -1 -10 4 -10 6 0 11 5 11 10 0 6 -2 10 -4 10 -3 0
-8 -4 -11 -10z"/>
<path d="M8165 5720 c-2 -3 7 -7 21 -8 13 -1 24 2 24 6 0 9 -40 11 -45 2z"/>
<path d="M8225 5722 c3 -3 0 -11 -5 -17 -7 -9 -5 -16 7 -26 15 -11 16 -11 6 1
-10 11 -10 17 2 30 13 15 13 17 0 17 -8 0 -13 -3 -10 -5z"/>
<path d="M8365 5720 c-3 -5 -1 -10 4 -10 6 0 11 5 11 10 0 6 -2 10 -4 10 -3 0
-8 -4 -11 -10z"/>
<path d="M8405 5717 c-5 -7 -11 -19 -13 -27 -1 -10 3 -8 13 4 8 11 15 23 15
28 0 11 -3 10 -15 -5z"/>
<path d="M5075 5700 c-3 -5 -1 -10 4 -10 6 0 11 5 11 10 0 6 -2 10 -4 10 -3 0
-8 -4 -11 -10z"/>
<path d="M6210 5700 c0 -5 5 -10 11 -10 5 0 7 5 4 10 -3 6 -8 10 -11 10 -2 0
-4 -4 -4 -10z"/>
<path d="M6655 5701 c-3 -5 0 -13 6 -17 7 -4 9 -3 5 4 -3 5 0 13 6 15 9 4 10
6 1 6 -6 1 -14 -3 -18 -8z"/>
<path d="M7023 5699 c9 -6 14 -15 11 -21 -4 -7 -2 -8 5 -4 14 9 -3 36 -23 36
-6 0 -3 -5 7 -11z"/>
<path d="M7295 5701 c-3 -5 0 -13 6 -17 7 -4 9 -3 5 4 -3 5 0 13 6 15 9 4 10
6 1 6 -6 1 -14 -3 -18 -8z"/>
<path d="M7650 5706 c0 -2 7 -7 16 -10 8 -3 12 -2 9 4 -6 10 -25 14 -25 6z"/>
<path d="M7775 5701 c-3 -5 0 -13 6 -17 7 -4 9 -3 5 4 -3 5 0 13 6 15 9 4 10
6 1 6 -6 1 -14 -3 -18 -8z"/>
<path d="M8010 5700 c0 -5 5 -10 11 -10 5 0 7 5 4 10 -3 6 -8 10 -11 10 -2 0
-4 -4 -4 -10z"/>
<path d="M8430 5700 c0 -5 5 -10 11 -10 5 0 7 5 4 10 -3 6 -8 10 -11 10 -2 0
-4 -4 -4 -10z"/>
<path d="M3720 5698 c0 -3 6 -11 14 -17 10 -9 17 -7 27 6 12 16 12 17 -2 6
-12 -10 -18 -10 -27 -1 -7 7 -12 9 -12 6z"/>
<path d="M5110 5686 c0 -2 7 -7 16 -10 8 -3 12 -2 9 4 -6 10 -25 14 -25 6z"/>
<path d="M6170 5686 c0 -2 7 -7 16 -10 8 -3 12 -2 9 4 -6 10 -25 14 -25 6z"/>
<path d="M6266 5678 c3 -5 10 -6 15 -3 13 9 11 12 -6 12 -8 0 -12 -4 -9 -9z"/>
<path d="M7386 5678 c3 -5 10 -6 15 -3 13 9 11 12 -6 12 -8 0 -12 -4 -9 -9z"/>
<path d="M2490 5643 c14 -17 29 -28 34 -25 4 2 3 8 -4 12 -6 4 -11 11 -11 16
1 5 -2 9 -6 9 -5 0 -15 5 -23 10 -8 5 -4 -5 10 -22z"/>
<path d="M8315 5660 c3 -5 8 -10 11 -10 2 0 4 5 4 10 0 6 -5 10 -11 10 -5 0
-7 -4 -4 -10z"/>
<path d="M3793 5635 c0 -8 4 -12 9 -9 5 3 6 10 3 15 -9 13 -12 11 -12 -6z"/>
<path d="M6150 5638 c0 -4 4 -8 9 -8 6 0 12 4 15 8 3 5 -1 9 -9 9 -8 0 -15 -4
-15 -9z"/>
<path d="M2536 5612 c-3 -5 1 -9 9 -9 8 0 12 4 9 9 -3 4 -7 8 -9 8 -2 0 -6 -4
-9 -8z"/>
<path d="M3845 5580 c-3 -6 1 -7 9 -4 18 7 21 14 7 14 -6 0 -13 -4 -16 -10z"/>
<path d="M2616 5537 c3 -10 9 -15 12 -12 3 3 0 11 -7 18 -10 9 -11 8 -5 -6z"/>
<path d="M3880 5538 c0 -3 6 -11 14 -17 10 -9 17 -7 27 6 12 16 12 17 -2 6
-12 -10 -18 -10 -27 -1 -7 7 -12 9 -12 6z"/>
<path d="M2610 5506 c0 -2 7 -7 16 -10 8 -3 12 -2 9 4 -6 10 -25 14 -25 6z"/>
<path d="M4005 5420 c-3 -5 -1 -10 4 -10 6 0 11 5 11 10 0 6 -2 10 -4 10 -3 0
-8 -4 -11 -10z"/>
<path d="M2710 5416 c0 -2 8 -10 18 -17 15 -13 16 -12 3 4 -13 16 -21 21 -21
13z"/>
<path d="M4046 5402 c-3 -5 1 -9 9 -9 8 0 12 4 9 9 -3 4 -7 8 -9 8 -2 0 -6 -4
-9 -8z"/>
<path d="M2750 5396 c0 -3 9 -10 20 -16 11 -6 20 -8 20 -6 0 3 -9 10 -20 16
-11 6 -20 8 -20 6z"/>
<path d="M8570 5380 c0 -5 5 -10 11 -10 5 0 7 5 4 10 -3 6 -8 10 -11 10 -2 0
-4 -4 -4 -10z"/>
<path d="M2444 5368 c3 -22 17 -38 32 -38 8 0 14 5 14 10 0 6 -3 9 -7 9 -20
-3 -34 2 -28 10 3 5 1 12 -4 15 -5 4 -8 0 -7 -6z"/>
<path d="M4126 5293 c-6 -14 -5 -15 5 -6 7 7 10 15 7 18 -3 3 -9 -2 -12 -12z"/>
<path d="M8553 5288 c0 -13 1 -17 4 -10 3 6 9 10 14 7 5 -4 6 1 3 9 -9 23 -20
19 -21 -6z"/>
<path d="M2470 5239 c0 -5 5 -7 10 -4 6 3 10 8 10 11 0 2 -4 4 -10 4 -5 0 -10
-5 -10 -11z"/>
<path d="M2445 5231 c-3 -6 1 -14 10 -17 12 -5 13 -9 4 -20 -8 -10 -8 -14 0
-14 6 0 11 5 11 11 0 5 4 8 9 4 5 -3 13 0 17 6 4 7 3 9 -4 5 -6 -3 -17 3 -25
15 -9 13 -17 16 -22 10z"/>
<path d="M8550 5220 c8 -5 20 -10 25 -10 6 0 3 5 -5 10 -8 5 -19 10 -25 10 -5
0 -3 -5 5 -10z"/>
<path d="M2448 5138 c8 -9 10 -22 6 -29 -5 -8 -2 -9 11 -1 19 10 30 42 14 42
-5 0 -9 -5 -9 -11 0 -8 -6 -7 -17 2 -16 13 -17 12 -5 -3z"/>
<path d="M2980 5140 c8 -5 20 -10 25 -10 6 0 3 5 -5 10 -8 5 -19 10 -25 10 -5
0 -3 -5 5 -10z"/>
<path d="M4286 5133 c-6 -14 -5 -15 5 -6 7 7 10 15 7 18 -3 3 -9 -2 -12 -12z"/>
<path d="M2460 5085 c0 -7 30 -13 34 -7 3 4 -4 9 -15 9 -10 1 -19 0 -19 -2z"/>
<path d="M2459 5057 c6 -8 8 -17 4 -21 -4 -4 0 -4 10 -1 14 6 14 9 2 21 -17
18 -31 18 -16 1z"/>
<path d="M3070 5056 c0 -2 8 -10 18 -17 15 -13 16 -12 3 4 -13 16 -21 21 -21
13z"/>
<path d="M4389 5043 c-13 -16 -12 -17 4 -4 16 13 21 21 13 21 -2 0 -10 -8 -17
-17z"/>
<path d="M4437 5023 c-10 -9 -9 -33 1 -33 4 0 8 9 8 20 0 23 0 22 -9 13z"/>
<path d="M2459 4986 c-6 -6 -3 -46 3 -46 4 0 8 7 8 15 0 8 5 15 10 15 6 0 10
4 10 8 0 7 -26 13 -31 8z"/>
<path d="M2449 4898 c10 -14 11 -21 2 -32 -8 -10 -9 -16 -1 -21 10 -6 14 1 11
19 -1 5 6 5 16 2 14 -6 15 -4 6 5 -6 6 -10 17 -9 23 2 6 1 7 -2 3 -2 -4 -11
-2 -20 5 -15 12 -16 11 -3 -4z"/>
<path d="M8555 4880 c-3 -6 1 -7 9 -4 18 7 21 14 7 14 -6 0 -13 -4 -16 -10z"/>
<path d="M8575 4860 c3 -5 8 -10 11 -10 2 0 4 5 4 10 0 6 -5 10 -11 10 -5 0
-7 -4 -4 -10z"/>
<path d="M3303 4845 c0 -8 4 -12 9 -9 5 3 6 10 3 15 -9 13 -12 11 -12 -6z"/>
<path d="M2456 4831 c-12 -5 -15 -10 -9 -14 6 -4 16 0 23 8 14 17 13 17 -14 6z"/>
<path d="M2477 4812 c-15 -16 -15 -19 -2 -19 8 0 13 3 10 5 -3 3 0 11 6 19 17
20 5 16 -14 -5z"/>
<path d="M3315 4809 c-4 -6 -5 -12 -2 -15 2 -3 7 2 10 11 7 17 1 20 -8 4z"/>
<path d="M8576 4793 c-6 -14 -5 -15 5 -6 7 7 10 15 7 18 -3 3 -9 -2 -12 -12z"/>
<path d="M2470 4771 c0 -5 5 -13 10 -16 6 -3 10 -2 10 4 0 5 -4 13 -10 16 -5
3 -10 2 -10 -4z"/>
<path d="M3355 4771 c-3 -5 -2 -12 3 -15 5 -3 9 1 9 9 0 17 -3 19 -12 6z"/>
<path d="M2456 4736 c2 -13 0 -28 -6 -31 -6 -4 -8 -11 -4 -16 3 -5 10 -7 15
-3 5 3 6 10 3 16 -5 8 -1 9 11 4 14 -5 16 -4 7 7 -7 8 -10 16 -7 19 3 3 -1 11
-9 17 -13 11 -14 9 -10 -13z"/>
<path d="M3390 4736 c0 -2 8 -10 18 -17 15 -13 16 -12 3 4 -13 16 -21 21 -21
13z"/>
<path d="M4680 4738 c0 -3 6 -11 14 -17 10 -9 17 -7 27 6 12 16 12 17 -2 6
-12 -10 -18 -10 -27 -1 -7 7 -12 9 -12 6z"/>
<path d="M8575 4711 c-3 -5 -2 -12 3 -15 5 -3 9 1 9 9 0 17 -3 19 -12 6z"/>
<path d="M4753 4685 c0 -8 4 -15 9 -15 4 0 8 4 8 9 0 6 -4 12 -8 15 -5 3 -9
-1 -9 -9z"/>
<path d="M3436 4682 c-3 -5 1 -9 9 -9 8 0 12 4 9 9 -3 4 -7 8 -9 8 -2 0 -6 -4
-9 -8z"/>
<path d="M2456 4671 c-12 -5 -15 -10 -9 -14 6 -4 16 0 23 8 14 17 13 17 -14 6z"/>
<path d="M2477 4652 c-15 -16 -15 -19 -2 -19 8 0 13 3 10 5 -3 3 0 11 6 19 17
20 5 16 -14 -5z"/>
<path d="M3476 4638 c3 -5 10 -6 15 -3 13 9 11 12 -6 12 -8 0 -12 -4 -9 -9z"/>
<path d="M8576 4633 c-6 -14 -5 -15 5 -6 7 7 10 15 7 18 -3 3 -9 -2 -12 -12z"/>
<path d="M2470 4611 c0 -5 5 -13 10 -16 6 -3 10 -2 10 4 0 5 -4 13 -10 16 -5
3 -10 2 -10 -4z"/>
<path d="M2456 4576 c2 -13 0 -28 -6 -31 -6 -4 -8 -11 -4 -16 3 -5 10 -7 15
-3 5 3 6 10 3 16 -5 8 -1 9 11 4 14 -5 16 -4 7 7 -7 8 -10 16 -7 19 3 3 -1 11
-9 17 -13 11 -14 9 -10 -13z"/>
<path d="M3570 4546 c0 -2 7 -7 16 -10 8 -3 12 -2 9 4 -6 10 -25 14 -25 6z"/>
<path d="M4913 4525 c0 -8 4 -15 9 -15 4 0 8 4 8 9 0 6 -4 12 -8 15 -5 3 -9
-1 -9 -9z"/>
<path d="M6645 4531 c-3 -5 -1 -12 5 -16 5 -3 10 1 10 9 0 18 -6 21 -15 7z"/>
<path d="M6965 4531 c-3 -5 -1 -12 5 -16 5 -3 10 1 10 9 0 18 -6 21 -15 7z"/>
<path d="M7409 4538 c-1 -5 -2 -11 -3 -15 -1 -5 -5 -14 -10 -21 -5 -8 -4 -18
3 -25 9 -9 11 -8 6 5 -6 14 -2 16 18 12 14 -2 28 0 32 6 3 6 -1 7 -9 4 -11 -4
-19 2 -25 17 -5 13 -11 21 -12 17z"/>
<path d="M7765 4531 c-3 -5 -1 -12 5 -16 5 -3 10 1 10 9 0 18 -6 21 -15 7z"/>
<path d="M8540 4520 c-8 -5 -10 -10 -5 -10 6 0 17 5 25 10 8 5 11 10 5 10 -5
0 -17 -5 -25 -10z"/>
<path d="M2456 4511 c-12 -5 -15 -10 -9 -14 6 -4 16 0 23 8 14 17 13 17 -14 6z"/>
<path d="M4953 4505 c0 -8 4 -12 9 -9 5 3 6 10 3 15 -9 13 -12 11 -12 -6z"/>
<path d="M7859 4503 c-7 -10 -9 -15 -5 -11 5 4 15 0 23 -10 12 -16 13 -16 6 2
-4 13 -3 17 5 12 6 -3 14 -1 18 6 4 7 4 10 -1 6 -4 -4 -14 -3 -20 2 -9 7 -16
5 -26 -7z"/>
<path d="M2477 4492 c-15 -16 -15 -19 -2 -19 8 0 13 3 10 5 -3 3 0 11 6 19 17
20 5 16 -14 -5z"/>
<path d="M7150 4498 c0 -4 4 -8 9 -8 6 0 12 4 15 8 3 5 -1 9 -9 9 -8 0 -15 -4
-15 -9z"/>
<path d="M7461 4487 c-13 -21 -12 -21 5 -5 10 10 16 20 13 22 -3 3 -11 -5 -18
-17z"/>
<path d="M8110 4498 c0 -4 4 -8 9 -8 6 0 12 4 15 8 3 5 -1 9 -9 9 -8 0 -15 -4
-15 -9z"/>
<path d="M7121 4486 c-9 -11 -9 -16 1 -22 7 -4 10 -4 6 1 -4 4 -3 14 3 22 6 7
9 13 6 13 -2 0 -10 -6 -16 -14z"/>
<path d="M7490 4495 c0 -8 29 -12 39 -5 9 5 4 8 -13 8 -14 0 -26 -2 -26 -3z"/>
<path d="M8081 4486 c-9 -11 -9 -16 1 -22 7 -4 10 -4 6 1 -4 4 -3 14 3 22 6 7
9 13 6 13 -2 0 -10 -6 -16 -14z"/>
<path d="M8430 4491 c0 -6 4 -13 10 -16 6 -3 7 1 4 9 -7 18 -14 21 -14 7z"/>
<path d="M3636 4478 c3 -5 10 -6 15 -3 13 9 11 12 -6 12 -8 0 -12 -4 -9 -9z"/>
<path d="M4966 4482 c-3 -5 1 -9 9 -9 8 0 12 4 9 9 -3 4 -7 8 -9 8 -2 0 -6 -4
-9 -8z"/>
<path d="M8350 4486 c0 -2 7 -7 16 -10 8 -3 12 -2 9 4 -6 10 -25 14 -25 6z"/>
<path d="M3673 4465 c0 -8 4 -15 9 -15 4 0 8 4 8 9 0 6 -4 12 -8 15 -5 3 -9
-1 -9 -9z"/>
<path d="M7075 4471 c-3 -5 -2 -12 3 -15 5 -3 9 1 9 9 0 17 -3 19 -12 6z"/>
<path d="M8035 4471 c-3 -5 -2 -12 3 -15 5 -3 9 1 9 9 0 17 -3 19 -12 6z"/>
<path d="M7150 4459 c0 -5 5 -7 10 -4 6 3 10 8 10 11 0 2 -4 4 -10 4 -5 0 -10
-5 -10 -11z"/>
<path d="M8110 4459 c0 -5 5 -7 10 -4 6 3 10 8 10 11 0 2 -4 4 -10 4 -5 0 -10
-5 -10 -11z"/>
<path d="M8335 4460 c-3 -5 -1 -10 4 -10 6 0 11 5 11 10 0 6 -2 10 -4 10 -3 0
-8 -4 -11 -10z"/>
<path d="M2470 4451 c0 -5 5 -13 10 -16 6 -3 10 -2 10 4 0 5 -4 13 -10 16 -5
3 -10 2 -10 -4z"/>
<path d="M4960 4456 c0 -3 9 -10 19 -16 15 -7 22 -7 27 2 4 7 4 10 -1 6 -4 -4
-16 -3 -26 3 -11 5 -19 7 -19 5z"/>
<path d="M2456 4416 c2 -13 0 -28 -6 -31 -6 -4 -8 -11 -4 -16 3 -5 10 -7 15
-3 5 3 6 10 3 16 -5 8 -1 9 11 4 14 -5 16 -4 7 7 -7 8 -10 16 -7 19 3 3 -1 11
-9 17 -13 11 -14 9 -10 -13z"/>
<path d="M5004 4419 c-4 -7 -3 -9 4 -5 5 3 13 0 15 -6 4 -9 6 -10 6 -1 1 17
-16 25 -25 12z"/>
<path d="M3715 4411 c-3 -5 -2 -12 3 -15 5 -3 9 1 9 9 0 17 -3 19 -12 6z"/>
<path d="M3753 4385 c0 -8 4 -15 9 -15 4 0 8 4 8 9 0 6 -4 12 -8 15 -5 3 -9
-1 -9 -9z"/>
<path d="M5090 4360 c0 -5 5 -10 11 -10 5 0 7 5 4 10 -3 6 -8 10 -11 10 -2 0
-4 -4 -4 -10z"/>
<path d="M2456 4351 c-12 -5 -15 -10 -9 -14 6 -4 16 0 23 8 14 17 13 17 -14 6z"/>
<path d="M2477 4332 c-15 -16 -15 -19 -2 -19 8 0 13 3 10 5 -3 3 0 11 6 19 17
20 5 16 -14 -5z"/>
<path d="M3770 4346 c0 -2 7 -7 16 -10 8 -3 12 -2 9 4 -6 10 -25 14 -25 6z"/>
<path d="M3818 4333 c10 -4 10 -8 0 -21 -12 -15 -11 -16 4 -3 19 14 15 32 -5
30 -8 0 -8 -2 1 -6z"/>
<path d="M5080 4336 c0 -3 9 -10 20 -16 11 -6 20 -8 20 -6 0 3 -9 10 -20 16
-11 6 -20 8 -20 6z"/>
<path d="M5130 4320 c0 -5 5 -10 11 -10 5 0 7 5 4 10 -3 6 -8 10 -11 10 -2 0
-4 -4 -4 -10z"/>
<path d="M6150 4320 c0 -5 5 -10 11 -10 5 0 7 5 4 10 -3 6 -8 10 -11 10 -2 0
-4 -4 -4 -10z"/>
<path d="M3835 4300 c-3 -6 1 -7 9 -4 18 7 21 14 7 14 -6 0 -13 -4 -16 -10z"/>
<path d="M2470 4291 c0 -5 5 -13 10 -16 6 -3 10 -2 10 4 0 5 -4 13 -10 16 -5
3 -10 2 -10 -4z"/>
<path d="M6105 4281 c-3 -5 -1 -12 5 -16 7 -4 7 -12 0 -25 -7 -13 -7 -21 1
-26 8 -4 8 -9 0 -17 -7 -7 -7 -14 0 -24 8 -9 8 -17 1 -25 -13 -17 -12 -67 1
-75 6 -4 8 0 4 10 -4 12 -1 17 11 18 14 0 14 2 2 7 -17 8 -25 32 -10 32 6 0
10 9 10 20 0 11 -6 20 -12 20 -10 0 -10 2 -1 8 7 5 10 19 7 36 -3 20 -1 25 7
20 8 -4 9 -3 5 5 -4 6 -2 18 4 26 9 11 9 15 1 15 -6 0 -11 -4 -11 -10 0 -5 -5
-10 -11 -10 -5 0 -7 5 -4 10 3 6 4 10 1 10 -3 0 -7 -4 -11 -9z"/>
<path d="M2456 4256 c2 -13 0 -28 -6 -31 -6 -4 -8 -11 -4 -16 3 -5 10 -7 15
-3 5 3 6 10 3 16 -5 8 -1 9 11 4 14 -5 16 -4 7 7 -7 8 -10 16 -7 19 3 3 -1 11
-9 17 -13 11 -14 9 -10 -13z"/>
<path d="M2456 4191 c-12 -5 -15 -10 -9 -14 6 -4 16 0 23 8 14 17 13 17 -14 6z"/>
<path d="M2477 4172 c-15 -16 -15 -19 -2 -19 8 0 13 3 10 5 -3 3 0 11 6 19 17
20 5 16 -14 -5z"/>
<path d="M2470 4131 c0 -5 5 -13 10 -16 6 -3 10 -2 10 4 0 5 -4 13 -10 16 -5
3 -10 2 -10 -4z"/>
<path d="M6155 4129 c-4 -6 -5 -12 -2 -15 2 -3 7 2 10 11 7 17 1 20 -8 4z"/>
<path d="M2456 4096 c2 -13 0 -28 -6 -31 -6 -4 -8 -11 -4 -16 3 -5 10 -7 15
-3 5 3 6 10 3 16 -5 8 -1 9 11 4 14 -5 16 -4 7 7 -7 8 -10 16 -7 19 3 3 -1 11
-9 17 -13 11 -14 9 -10 -13z"/>
<path d="M6155 4060 c3 -5 8 -10 11 -10 2 0 4 5 4 10 0 6 -5 10 -11 10 -5 0
-7 -4 -4 -10z"/>
<path d="M2456 4031 c-12 -5 -15 -10 -9 -14 6 -4 16 0 23 8 14 17 13 17 -14 6z"/>
<path d="M2477 4012 c-15 -16 -15 -19 -2 -19 8 0 13 3 10 5 -3 3 0 11 6 19 17
20 5 16 -14 -5z"/>
<path d="M6107 3996 c-4 -9 -1 -18 4 -22 7 -4 3 -14 -10 -28 -20 -22 -20 -22
0 -34 11 -7 17 -18 14 -25 -4 -7 0 -4 9 6 18 23 10 50 -13 43 -14 -5 -13 -4 1
7 11 9 16 23 13 37 -6 30 -11 34 -18 16z m18 -76 c3 -5 1 -10 -4 -10 -6 0 -11
5 -11 10 0 6 2 10 4 10 3 0 8 -4 11 -10z"/>
<path d="M2470 3971 c0 -5 5 -13 10 -16 6 -3 10 -2 10 4 0 5 -4 13 -10 16 -5
3 -10 2 -10 -4z"/>
<path d="M2456 3936 c2 -13 0 -28 -6 -31 -6 -4 -8 -11 -4 -16 3 -5 10 -7 15
-3 5 3 6 10 3 16 -5 8 -1 9 11 4 14 -5 16 -4 7 7 -7 8 -10 16 -7 19 3 3 -1 11
-9 17 -13 11 -14 9 -10 -13z"/>
<path d="M6162 3923 c25 -27 39 -32 15 -5 -10 10 -15 21 -12 24 3 2 -2 5 -10
5 -12 0 -10 -6 7 -24z"/>
<path d="M6136 3882 c-3 -4 4 -9 15 -9 23 -2 25 3 4 10 -8 4 -16 3 -19 -1z"/>
<path d="M2456 3871 c-12 -5 -15 -10 -9 -14 6 -4 16 0 23 8 14 17 13 17 -14 6z"/>
<path d="M2477 3852 c-15 -16 -15 -19 -2 -19 8 0 13 3 10 5 -3 3 0 11 6 19 17
20 5 16 -14 -5z"/>
<path d="M2470 3811 c0 -5 5 -13 10 -16 6 -3 10 -2 10 4 0 5 -4 13 -10 16 -5
3 -10 2 -10 -4z"/>
<path d="M6114 3761 c0 -40 3 -47 14 -39 9 8 10 14 2 22 -13 13 -13 29 1 20 9
-5 -3 27 -16 43 -1 2 -1 -19 -1 -46z"/>
<path d="M6135 3800 c3 -5 8 -10 11 -10 2 0 4 5 4 10 0 6 -5 10 -11 10 -5 0
-7 -4 -4 -10z"/>
<path d="M2456 3776 c2 -13 0 -28 -6 -31 -6 -4 -8 -11 -4 -16 3 -5 10 -7 15
-3 5 3 6 10 3 16 -5 8 -1 9 11 4 14 -5 16 -4 7 7 -7 8 -10 16 -7 19 3 3 -1 11
-9 17 -13 11 -14 9 -10 -13z"/>
<path d="M2456 3711 c-12 -5 -15 -10 -9 -14 6 -4 16 0 23 8 14 17 13 17 -14 6z"/>
<path d="M2477 3692 c-15 -16 -15 -19 -2 -19 8 0 13 3 10 5 -3 3 0 11 6 19 17
20 5 16 -14 -5z"/>
<path d="M6130 3677 c-14 -11 -25 -37 -16 -37 2 0 11 11 20 25 18 28 18 30 -4
12z"/>
<path d="M2470 3651 c0 -5 5 -13 10 -16 6 -3 10 -2 10 4 0 5 -4 13 -10 16 -5
3 -10 2 -10 -4z"/>
<path d="M6136 3642 c-3 -5 1 -9 9 -9 8 0 12 4 9 9 -3 4 -7 8 -9 8 -2 0 -6 -4
-9 -8z"/>
<path d="M2456 3616 c2 -13 0 -28 -6 -31 -6 -4 -8 -11 -4 -16 3 -5 10 -7 15
-3 5 3 6 10 3 16 -5 8 -1 9 11 4 14 -5 16 -4 7 7 -7 8 -10 16 -7 19 3 3 -1 11
-9 17 -13 11 -14 9 -10 -13z"/>
<path d="M6159 3593 c-13 -16 -12 -17 4 -4 16 13 21 21 13 21 -2 0 -10 -8 -17
-17z"/>
<path d="M2456 3551 c-12 -5 -15 -10 -9 -14 6 -4 16 0 23 8 14 17 13 17 -14 6z"/>
<path d="M2477 3532 c-15 -16 -15 -19 -2 -19 8 0 13 3 10 5 -3 3 0 11 6 19 17
20 5 16 -14 -5z"/>
<path d="M2470 3491 c0 -5 5 -13 10 -16 6 -3 10 -2 10 4 0 5 -4 13 -10 16 -5
3 -10 2 -10 -4z"/>
<path d="M2454 3455 c0 -19 3 -22 13 -13 10 8 10 14 2 24 -15 18 -15 18 -15
-11z"/>
<path d="M2493 3435 c0 -8 4 -12 9 -9 5 3 6 10 3 15 -9 13 -12 11 -12 -6z"/>
<path d="M6114 3411 c4 -6 3 -18 -3 -25 -8 -10 -6 -19 9 -36 11 -13 20 -18 20
-12 0 6 -7 18 -16 26 -8 9 -11 16 -5 16 15 0 14 27 -1 36 -7 4 -8 3 -4 -5z"/>
<path d="M2447 3358 c-7 -20 -8 -28 -1 -27 4 0 11 -5 16 -13 8 -10 9 -10 5 2
-2 8 3 21 12 28 14 11 14 11 -3 5 -13 -4 -17 -3 -12 5 4 7 3 12 -2 12 -6 0
-12 -6 -15 -12z"/>
<path d="M2430 3300 c0 -5 5 -10 10 -10 6 0 10 5 10 10 0 6 -4 10 -10 10 -5 0
-10 -4 -10 -10z"/>
<path d="M2755 3300 c-3 -5 -1 -10 4 -10 6 0 11 5 11 10 0 6 -2 10 -4 10 -3 0
-8 -4 -11 -10z"/>
<path d="M1551 3284 c0 -11 3 -14 6 -6 3 7 2 16 -1 19 -3 4 -6 -2 -5 -13z"/>
<path d="M1813 3275 c0 -16 2 -24 4 -18 3 9 10 10 23 3 15 -8 21 -6 30 10 10
19 11 19 45 0 32 -18 34 -18 24 -1 -7 10 -17 18 -23 19 -58 7 -61 7 -58 -11 3
-15 0 -17 -17 -8 -10 6 -21 16 -24 23 -2 7 -4 0 -4 -17z"/>
<path d="M2083 3293 c-19 -7 -16 -16 10 -32 20 -13 21 -13 9 2 -8 9 -11 21 -7
27 7 11 6 11 -12 3z"/>
<path d="M2290 3295 c0 -5 5 -17 10 -25 5 -8 10 -10 10 -5 0 6 -5 17 -10 25
-5 8 -10 11 -10 5z"/>
<path d="M2781 3284 c0 -11 3 -14 6 -6 3 7 2 16 -1 19 -3 4 -6 -2 -5 -13z"/>
<path d="M3043 3293 c-19 -7 -16 -16 10 -32 20 -13 21 -13 9 2 -8 9 -11 21 -7
27 7 11 6 11 -12 3z"/>
<path d="M3299 3297 c-4 -10 -6 -49 -3 -40 4 9 11 10 25 2 15 -8 21 -6 25 6 4
9 4 18 2 21 -5 5 -47 14 -49 11z m39 -26 c3 -10 0 -10 -17 -2 -25 14 -27 20
-4 17 9 -2 19 -8 21 -15z"/>
<path d="M3385 3289 c-10 -15 3 -25 16 -12 7 7 7 13 1 17 -6 3 -14 1 -17 -5z"/>
<path d="M3490 3291 c0 -10 19 -25 25 -20 1 2 -3 10 -11 17 -8 7 -14 8 -14 3z"/>
<path d="M3539 3297 c-7 -19 -7 -47 1 -47 6 0 9 6 8 13 -2 8 7 11 26 10 20 -2
26 1 19 8 -8 8 -52 21 -54 16z"/>
<path d="M3733 3275 c0 -16 2 -24 4 -18 3 9 10 10 23 3 15 -8 21 -6 30 11 9
16 14 18 26 8 8 -6 17 -9 20 -6 7 7 -26 24 -46 22 -9 0 -14 -8 -12 -18 3 -15
0 -17 -17 -8 -10 6 -21 16 -24 23 -2 7 -4 0 -4 -17z"/>
<path d="M4009 3284 c-8 -10 -8 -14 0 -14 6 0 11 5 11 11 0 6 7 3 16 -5 8 -9
21 -16 27 -16 7 0 6 4 -3 10 -12 8 -12 10 -1 10 20 0 8 10 -17 15 -11 2 -26
-3 -33 -11z"/>
<path d="M4185 3289 c-10 -15 3 -25 16 -12 7 7 7 13 1 17 -6 3 -14 1 -17 -5z"/>
<path d="M4290 3291 c0 -10 19 -25 25 -20 1 2 -3 10 -11 17 -8 7 -14 8 -14 3z"/>
<path d="M4649 3284 c-8 -10 -8 -14 0 -14 6 0 11 5 11 11 0 6 7 3 16 -5 8 -9
21 -16 27 -16 7 0 6 4 -3 10 -12 8 -12 10 -1 10 20 0 8 10 -17 15 -11 2 -26
-3 -33 -11z"/>
<path d="M4749 3297 c0 -1 -2 -13 -5 -27 -3 -18 -2 -21 5 -10 5 8 7 18 4 23
-7 12 30 4 40 -8 5 -6 7 -4 5 4 -3 11 -46 28 -49 18z"/>
<path d="M1990 3280 c0 -5 5 -10 10 -10 6 0 10 5 10 10 0 6 -4 10 -10 10 -5 0
-10 -4 -10 -10z"/>
<path d="M2150 3280 c0 -5 5 -10 10 -10 6 0 10 5 10 10 0 6 -4 10 -10 10 -5 0
-10 -4 -10 -10z"/>
<path d="M2230 3279 c0 -5 5 -7 10 -4 6 3 10 8 10 11 0 2 -4 4 -10 4 -5 0 -10
-5 -10 -11z"/>
<path d="M2950 3280 c0 -5 5 -10 10 -10 6 0 10 5 10 10 0 6 -4 10 -10 10 -5 0
-10 -4 -10 -10z"/>
<path d="M3110 3280 c0 -5 5 -10 10 -10 6 0 10 5 10 10 0 6 -4 10 -10 10 -5 0
-10 -4 -10 -10z"/>
<path d="M3190 3279 c0 -5 5 -7 10 -4 6 3 10 8 10 11 0 2 -4 4 -10 4 -5 0 -10
-5 -10 -11z"/>
<path d="M3926 3277 c3 -10 9 -15 12 -12 3 3 0 11 -7 18 -10 9 -11 8 -5 -6z"/>
<path d="M4566 3277 c3 -10 9 -15 12 -12 3 3 0 11 -7 18 -10 9 -11 8 -5 -6z"/>
<path d="M4833 3275 c0 -8 6 -16 14 -19 11 -4 11 -1 3 14 -13 24 -17 25 -17 5z"/>
<path d="M4864 3279 c-4 -7 -3 -10 4 -5 12 7 21 -4 27 -35 6 -31 13 -34 13 -5
0 31 -32 64 -44 45z"/>
<path d="M1600 3260 c-9 -6 -10 -10 -3 -10 6 0 15 5 18 10 8 12 4 12 -15 0z"/>
<path d="M1655 3260 c3 -5 8 -10 11 -10 2 0 4 5 4 10 0 6 -5 10 -11 10 -5 0
-7 -4 -4 -10z"/>
<path d="M2020 3266 c0 -2 11 -6 25 -8 13 -3 22 -1 19 3 -5 9 -44 13 -44 5z"/>
<path d="M2180 3266 c0 -2 11 -6 25 -8 13 -3 22 -1 19 3 -5 9 -44 13 -44 5z"/>
<path d="M2830 3261 c0 -6 4 -13 10 -16 6 -3 7 1 4 9 -7 18 -14 21 -14 7z"/>
<path d="M2980 3266 c0 -2 11 -6 25 -8 13 -3 22 -1 19 3 -5 9 -44 13 -44 5z"/>
<path d="M3140 3266 c0 -2 11 -6 25 -8 13 -3 22 -1 19 3 -5 9 -44 13 -44 5z"/>
<path d="M3210 3260 c0 -5 5 -10 11 -10 5 0 7 5 4 10 -3 6 -8 10 -11 10 -2 0
-4 -4 -4 -10z"/>
<path d="M6110 3215 c8 -10 9 -19 2 -27 -13 -17 -12 -67 1 -75 6 -4 8 0 4 10
-4 12 -1 17 11 18 14 0 14 2 2 7 -17 8 -25 32 -10 32 17 0 11 37 -6 44 -14 5
-15 4 -4 -9z"/>
<path d="M6155 3169 c-4 -6 -5 -12 -2 -15 2 -3 7 2 10 11 7 17 1 20 -8 4z"/>
<path d="M5010 3122 c0 -5 7 -9 15 -9 8 0 12 4 9 9 -3 4 -9 8 -15 8 -5 0 -9
-4 -9 -8z"/>
<path d="M6155 3100 c3 -5 8 -10 11 -10 2 0 4 5 4 10 0 6 -5 10 -11 10 -5 0
-7 -4 -4 -10z"/>
<path d="M6107 3036 c-4 -9 -2 -18 4 -22 6 -4 6 -11 -2 -20 -10 -12 -9 -13 5
-8 11 4 15 14 11 31 -5 32 -11 38 -18 19z"/>
<path d="M6150 2975 c5 -7 6 -16 2 -21 -4 -5 -3 -5 2 -1 15 12 15 34 0 34 -9
0 -11 -4 -4 -12z"/>
<path d="M5170 2946 c0 -2 7 -7 16 -10 8 -3 12 -2 9 4 -6 10 -25 14 -25 6z"/>
<path d="M5210 2922 c0 -5 7 -9 15 -9 8 0 12 4 9 9 -3 4 -9 8 -15 8 -5 0 -9
-4 -9 -8z"/>
<path d="M6146 2878 c3 -5 10 -6 15 -3 13 9 11 12 -6 12 -8 0 -12 -4 -9 -9z"/>
<path d="M5273 2865 c0 -8 4 -15 9 -15 4 0 8 4 8 9 0 6 -4 12 -8 15 -5 3 -9
-1 -9 -9z"/>
<path d="M5377 2769 c7 -7 15 -10 18 -7 3 3 -2 9 -12 12 -14 6 -15 5 -6 -5z"/>
<path d="M6155 2761 c-3 -5 -2 -12 3 -15 5 -3 9 1 9 9 0 17 -3 19 -12 6z"/>
<path d="M5418 2733 c6 -2 9 -10 6 -15 -4 -7 -2 -8 5 -4 13 9 5 26 -12 25 -9
0 -8 -2 1 -6z"/>
<path d="M6100 2657 c0 -2 9 -14 20 -27 11 -13 20 -18 20 -12 0 6 -7 18 -16
26 -15 15 -24 20 -24 13z"/>
<path d="M5530 2586 c0 -2 7 -7 16 -10 8 -3 12 -2 9 4 -6 10 -25 14 -25 6z"/>
<path d="M5650 2466 c0 -2 7 -7 16 -10 8 -3 12 -2 9 4 -6 10 -25 14 -25 6z"/>
<path d="M5690 2442 c0 -5 7 -9 15 -9 8 0 12 4 9 9 -3 4 -9 8 -15 8 -5 0 -9
-4 -9 -8z"/>
<path d="M6115 2430 c-3 -5 -1 -10 4 -10 6 0 11 5 11 10 0 6 -2 10 -4 10 -3 0
-8 -4 -11 -10z"/>
<path d="M6122 2394 c-7 -8 -8 -14 -3 -14 10 0 25 19 20 25 -2 1 -10 -3 -17
-11z"/>
<path d="M5753 2385 c0 -8 4 -15 9 -15 4 0 8 4 8 9 0 6 -4 12 -8 15 -5 3 -9
-1 -9 -9z"/>
<path d="M6130 2356 c0 -8 4 -17 8 -20 4 -2 8 4 8 15 0 10 -4 19 -8 19 -4 0
-8 -6 -8 -14z"/>
<path d="M6096 2321 c-4 -5 1 -8 9 -7 21 3 31 16 12 16 -9 0 -18 -4 -21 -9z"/>
<path d="M5913 2225 c0 -8 4 -15 9 -15 4 0 8 4 8 9 0 6 -4 12 -8 15 -5 3 -9
-1 -9 -9z"/>
<path d="M5940 2180 c8 -5 20 -10 25 -10 6 0 3 5 -5 10 -8 5 -19 10 -25 10 -5
0 -3 -5 5 -10z"/>
<path d="M6017 2125 c3 -8 9 -12 14 -9 12 7 11 11 -5 17 -10 4 -13 1 -9 -8z"/>
</g>
</svg>
