<?xml version="1.0" standalone="no"?>
<!DOCTYPE svg PUBLIC "-//W3C//DTD SVG 20010904//EN"
 "http://www.w3.org/TR/2001/REC-SVG-20010904/DTD/svg10.dtd">
<svg version="1.0" xmlns="http://www.w3.org/2000/svg"
 width="500.000000pt" height="500.000000pt" viewBox="0 0 500.000000 500.000000"
 preserveAspectRatio="xMidYMid meet">
<metadata>
Created by potrace 1.11, written by Peter Selinger 2001-2013
</metadata>
<g transform="translate(0.000000,500.000000) scale(0.100000,-0.100000)"
fill="#000000" stroke="none">
<path d="M2290 4990 c-721 -68 -1362 -424 -1790 -995 -624 -833 -663 -1978
-96 -2850 402 -619 1026 -1014 1771 -1121 165 -24 487 -24 650 0 283 41 524
114 770 235 508 249 898 639 1146 1146 121 248 189 465 230 737 26 168 31 491
11 648 -75 572 -322 1081 -717 1475 -389 389 -915 645 -1465 715 -120 15 -397
20 -510 10z m290 -2491 l0 401 -78 0 -77 0 -245 245 -245 245 1208 0 1207 0 0
-245 0 -245 -645 0 -646 0 3 -77 3 -78 643 -3 642 -2 0 -240 0 -240 -642 -2
-643 -3 4 -637 c2 -359 -1 -638 -5 -638 -5 0 -151 142 -324 315 l-315 315
-565 2 -565 3 0 240 0 240 320 3 320 2 -395 395 c-217 217 -398 395 -402 395
-5 0 -8 -288 -8 -640 l0 -640 -240 0 -240 0 0 1213 1 1212 964 -969 965 -969
0 402z"/>
</g>
</svg>
